<?xml version="1.0" encoding="UTF-8"?><svg id="Capa_2" xmlns="http://www.w3.org/2000/svg" viewBox="0 0 124.14 124.14"><defs><style>.cls-1{fill:#fff;}.cls-2{fill:#9d1d5d;}</style></defs><g id="Capa_1-2"><g><rect class="cls-2" x="0" y="0" width="124.14" height="124.14" rx="24.24" ry="24.24"/><g><path class="cls-1" d="M114.59,82.28c-3.77,.26-8.55,.46-11.3,.67-.28,4.86-.49,9.42-.83,13.98-.32,4.36,.45,8.83-1.06,13.34h-5.4c-1.29-2.12-1.19-4.36-1.31-6.55-.31-5.91-.57-11.82-.89-17.73-.07-1.23,.24-2.74-1.54-3.11-1.75,.77-1.29,2.28-1.35,3.52-.35,6.65-.62,13.3-.94,19.95-.06,1.16-.22,2.31-.37,3.82h-6.44c-.53-9.13-1.05-17.94-1.59-27.21-2.72-.22-7.67-.42-11.26-.67,1.05-2.37,1.92-4.38,2.82-6.38,1.3-2.89,4.56-5.88,5.96-8.63,3.06-6,2.44-12.31,2.17-18.41-2.69-2.49-5.23-4.74-7.64-7.13-3.3-3.26-5.66-7.19-7.62-11.37-.31-.67-.63-1.35-.81-2.06-.99-3.96,.59-5.56,5.44-4.92,3.11,5.46,6.28,11.36,12.18,15.45,6.26-2.41,12.75-2.62,19.2,.03,4.45-3.15,7.52-7.26,10.12-11.78,.59-1.02,1.03-2.16,1.78-3.05,1.05-1.26,2.55-1.5,4.05-.89,1.55,.63,2.33,1.95,2.06,3.55-.24,1.43-.75,2.87-1.39,4.18-3.1,6.34-7.24,11.84-13.01,16.03-.71,.52-1.36,1.13-2.11,1.77-.6,6.51-.57,12.86,2.39,19.01,2.16,4.49,6.26,9.27,8.66,14.57Z"/><path class="cls-1" d="M21.81,38.95c7.64-2.52,11.7-2.72,19.76-.08,3.74-2.35,6.3-5.96,8.78-9.62,.99-1.47,1.76-3.09,2.78-4.54,1.14-1.61,2.7-2.04,4.26-1.4,1.75,.71,2.59,2.36,2.07,4.36-.26,.99-.76,1.92-1.22,2.84-3.63,7.22-8.42,13.55-15.12,18.95,.15,19.89-.05,39.97-1.54,59.9-2,1.72-3.96,1.32-6.2,.68-2.01-11.2-.73-22.64-2.55-33.96l-2.23,.3c-.71,11.27-1.41,22.42-2.13,33.84h-6.37c-.95-20.49-2.53-40.63-1.86-60.93-4.72-3.94-8.72-8.28-11.78-13.4-1.29-2.15-2.55-4.34-3.62-6.6-1.34-2.85-.91-4.72,1.05-5.81,1.94-1.08,3.62-.24,5.37,2.36,2.14,3.18,4.36,6.32,6.7,9.36,1.06,1.38,2.51,2.45,3.87,3.75Z"/><path class="cls-1" d="M21.55,23.91c-.46-4.69,3.8-10.43,10.35-10.36,5.85,.07,10.25,4.69,10.23,10.54-.02,5.88-4.51,10.22-10.42,10.28-5.47,.06-10.61-4.63-10.17-10.47Z"/><path class="cls-1" d="M102.69,23.9c.05,6.06-4.2,10.43-10.16,10.46-5.91,.03-10.41-4.39-10.46-10.27-.05-5.78,4.47-10.53,10.28-10.53,6.17,0,10.64,4.81,10.34,10.34Z"/></g></g></g></svg>