<?xml version="1.0" encoding="UTF-8"?><svg id="Capa_2" xmlns="http://www.w3.org/2000/svg" viewBox="0 0 123.76 123.76"><defs><style>.cls-1{fill:#fff;}.cls-2{fill:#f18d26;}</style></defs><g id="Capa_1-2"><g><rect class="cls-2" x="0" y="0" width="123.76" height="123.76" rx="24.16" ry="24.16"/><g id="tAadXQ"><g><path class="cls-1" d="M76,82.1c-5.98-.96-11.83-1.86-17.67-2.84-3.8-.64-7.58-1.4-11.36-2.1-1.44-.27-2.69-.91-3.85-1.77-3.01-2.24-3.62-5.33-3.07-8.8,.9-5.7,1.84-11.39,2.79-17.32-2.5,.67-4.74,1.67-7.03,2.56-2.35,3.7-4.64,7.41-7.04,11.04-.94,1.41-1.97,2.85-3.25,3.94-2.65,2.26-6.54,1.49-8.35-1.47-.66-1.07-1.04-2.25-.63-3.48,.49-1.48,.97-3.01,1.77-4.33,2.36-3.91,4.91-7.72,7.33-11.6,1.38-2.22,3.29-3.67,5.74-4.57,6.76-2.5,13.46-5.15,20.24-7.6,1.92-.69,4-1,6.04-1.3,3.17-.46,5.32,1.19,6.92,3.71,1.1,1.73,1.48,3.69,1.59,5.71,.16,2.81-.38,5.55-.89,8.29-.82,4.42-1.68,8.82-2.55,13.38,.91,.22,1.7,.46,2.52,.59,3.66,.62,7.31,1.26,10.98,1.79,4.86,.7,8.47,3.13,10.89,7.43,3.58,6.35,7.23,12.65,10.86,18.97,.21,.37,.44,.73,.7,1.16,1.27-.2,2.17-1.08,3.18-1.68,1.48-.88,3.03-1.24,4.72-1,.35,.05,.72,.1,1.03,.25,2.23,.99,3.18,3.04,3.86,5.15,.6,1.88-.34,3.5-1.63,4.83-.59,.61-1.32,1.09-2.04,1.55-2.96,1.86-5.94,3.7-8.93,5.53-.55,.33-1.11,.66-1.71,.88-2.04,.77-4.03,.66-5.53-1.01-1.33-1.47-2.54-3.1-3.53-4.81-3.78-6.48-7.45-13.02-11.16-19.54-.32-.55-.65-1.1-.91-1.54Z"/><path class="cls-1" d="M50.82,109.85c-11.5,.14-23.05-8.01-25.77-21.04-1.72-8.25,.25-15.72,5.55-22.28,.45-.55,.94-1.09,1.47-1.56,1.22-1.07,2.94-1.05,4.09,0,1.01,.92,1.23,2.71,.45,3.94-.23,.36-.55,.66-.82,.99-5.13,6.06-6.63,12.94-3.92,20.39,2.64,7.26,7.99,11.63,15.64,13.12,9.2,1.79,19.35-3.71,22.55-13.25,.2-.61,.37-1.23,.61-1.82,.64-1.58,2.12-2.43,3.55-2.08,1.62,.4,2.55,1.78,2.26,3.6-.17,1.05-.49,2.09-.89,3.07-3.96,9.59-11.16,15.09-21.34,16.76-1.12,.18-2.28,.12-3.42,.17Z"/><path class="cls-1" d="M64.58,9.22c5.86,.05,10.61,4.84,10.56,10.71-.05,5.53-4.39,10.78-10.87,10.66-6.62-.12-10.6-5.54-10.56-10.76,.04-6.31,5.4-10.87,10.87-10.61Z"/></g></g></g></g></svg>