<?xml version="1.0" encoding="UTF-8"?><svg id="Capa_2" xmlns="http://www.w3.org/2000/svg" xmlns:xlink="http://www.w3.org/1999/xlink" viewBox="0 0 124 124"><defs><style>.cls-1{fill:none;}.cls-2{clip-path:url(#clippath);}.cls-3{fill:#fff;}.cls-4{fill:#0a4682;}</style><clipPath id="clippath"><rect class="cls-1" x="0" y="0" width="124" height="124" rx="24.21" ry="24.21"/></clipPath></defs><g id="Capa_1-2"><g><rect class="cls-4" x="0" y="0" width="124" height="124" rx="24.21" ry="24.21"/><g class="cls-2"><g><g><path class="cls-3" d="M17.54,15.14c-3.19-2.21-6.5-4.49-9.79-6.8-1.19-.84-2.32-1.72-4.19-.77L-12.71,29.4c-.09,1.68,.95,2.48,1.98,3.32,4.21,3.46,8.48,6.85,12.57,10.43,7.34,6.42,15.95,8.54,25.41,7.61,3.28-.32,6.48-1.34,9.74-1.94,2.43-.45,4.88-.99,7.34-1.07,7.93-.28,15.87-.42,23.8-.51,2.8-.03,4.89-1.12,5.96-3.64,1.07-2.52,.42-4.87-1.38-6.91-1.39-1.57-3.31-1.7-5.2-1.87-7.43-.67-14.86-1.32-22.29-1.98-1.06-.09-2.14-.11-3.17-.35-.84-.2-1.62-.68-2.3-.98,.03-2.21,1.23-2.5,2.66-2.45,3.43,.11,6.88,.09,10.29,.4,6.36,.58,12.71,1.32,19.05,2.08,4.08,.49,7.68,2.21,11.04,4.54,6.14,4.26,12.64,7.88,19.45,10.96,.75,.34,1.52,.65,2.31,.87,2.71,.78,4.72,.18,5.98-1.72,1.25-1.9,.95-5.15-.78-6.92-.82-.84-1.82-1.53-2.83-2.13-7.01-4.19-14.04-8.32-21.05-12.49-4.37-2.6-8.78-5.14-13.07-7.87-4.35-2.77-9.06-4-14.16-3.76-8.52,.41-17.03,.9-25.55,1.35-5.08,.27-10.17,.52-15.54,.8Z"/><path class="cls-3" d="M100.31,51.68c-6.76-3.86-13.15-7.52-19.79-11.31l-.82,4.14c1.27,.77,2.5,1.66,3.85,2.31,3.72,1.78,7.47,3.5,11.24,5.14,2.09,.91,2.39,.81,5.52-.28Z"/><path class="cls-3" d="M90.55,54.26l-13.23-5.71-1.9,1.88c.23,.43,.28,.73,.44,.8,4.69,1.92,9.14,4.89,14.54,3.82l.15-.79Z"/></g><g><path class="cls-3" d="M106.57,108.85c3.19,2.21,6.5,4.49,9.79,6.81,1.19,.84,2.32,1.72,4.19,.77l16.27-21.83c.09-1.68-.96-2.48-1.98-3.32-4.21-3.46-8.48-6.85-12.58-10.43-7.34-6.42-15.95-8.55-25.41-7.61-3.28,.32-6.48,1.34-9.74,1.94-2.43,.45-4.88,.99-7.34,1.07-7.93,.28-15.87,.42-23.8,.51-2.8,.03-4.89,1.12-5.96,3.65-1.07,2.52-.42,4.88,1.39,6.91,1.39,1.57,3.31,1.7,5.2,1.87,7.43,.67,14.86,1.32,22.29,1.98,1.06,.09,2.14,.11,3.17,.35,.84,.2,1.62,.68,2.3,.98-.03,2.21-1.23,2.5-2.66,2.45-3.43-.11-6.88-.09-10.29-.4-6.36-.58-12.71-1.32-19.05-2.08-4.08-.49-7.68-2.21-11.05-4.54-6.14-4.26-12.65-7.88-19.45-10.96-.75-.34-1.52-.65-2.31-.87-2.71-.78-4.72-.18-5.98,1.72-1.25,1.9-.95,5.15,.78,6.92,.82,.84,1.82,1.53,2.83,2.13,7.01,4.19,14.04,8.32,21.06,12.49,4.37,2.6,8.79,5.14,13.08,7.87,4.35,2.77,9.06,4,14.17,3.76,8.52-.41,17.04-.9,25.55-1.35,5.08-.27,10.17-.52,15.54-.8Z"/><path class="cls-3" d="M23.77,72.31c6.76,3.86,13.16,7.52,19.8,11.31l.82-4.14c-1.27-.77-2.5-1.66-3.85-2.31-3.72-1.78-7.47-3.5-11.25-5.14-2.09-.91-2.4-.81-5.52,.28Z"/><path class="cls-3" d="M33.53,69.73l13.23,5.71,1.9-1.88c-.23-.43-.28-.73-.44-.8-4.69-1.92-9.14-4.89-14.54-3.82l-.15,.79Z"/></g></g></g></g></g></svg>