<?xml version="1.0" encoding="UTF-8"?><svg id="Capa_2" xmlns="http://www.w3.org/2000/svg" viewBox="0 0 124.28 124.28"><defs><style>.cls-1{fill:#fff;}.cls-2{fill:#662d8e;}</style></defs><g id="Capa_1-2"><g><rect class="cls-2" x="0" y="0" width="124.28" height="124.28" rx="24.27" ry="24.27"/><path class="cls-1" d="M37.83,28.41c-6.01,0-10.9-4.89-10.9-10.9s4.89-10.9,10.9-10.9,10.9,4.89,10.9,10.9-4.89,10.9-10.9,10.9Zm0-16.76c-3.23,0-5.86,2.63-5.86,5.86s2.63,5.86,5.86,5.86,5.86-2.63,5.86-5.86-2.63-5.86-5.86-5.86Z"/><path class="cls-1" d="M14.99,58.28c-6.01,0-10.9-4.89-10.9-10.9s4.89-10.9,10.9-10.9,10.9,4.89,10.9,10.9-4.89,10.9-10.9,10.9Zm0-16.76c-3.23,0-5.86,2.63-5.86,5.86s2.63,5.86,5.86,5.86,5.86-2.63,5.86-5.86-2.63-5.86-5.86-5.86Z"/><path class="cls-1" d="M37.83,118.76c-6.01,0-10.9-4.89-10.9-10.9s4.89-10.9,10.9-10.9,10.9,4.89,10.9,10.9-4.89,10.9-10.9,10.9Zm0-16.76c-3.23,0-5.86,2.63-5.86,5.86s2.63,5.86,5.86,5.86,5.86-2.63,5.86-5.86-2.63-5.86-5.86-5.86Z"/><path class="cls-1" d="M103.3,105.55c-6.01,0-10.9-4.89-10.9-10.9s4.89-10.9,10.9-10.9,10.9,4.89,10.9,10.9-4.89,10.9-10.9,10.9Zm0-16.76c-3.23,0-5.86,2.63-5.86,5.86s2.63,5.86,5.86,5.86,5.86-2.63,5.86-5.86-2.63-5.86-5.86-5.86Z"/><path class="cls-1" d="M103.3,41.47c-6.01,0-10.9-4.89-10.9-10.9s4.89-10.9,10.9-10.9,10.9,4.89,10.9,10.9-4.89,10.9-10.9,10.9Zm0-16.76c-3.23,0-5.86,2.63-5.86,5.86s2.63,5.86,5.86,5.86,5.86-2.63,5.86-5.86-2.63-5.86-5.86-5.86Z"/><g><path class="cls-1" d="M17.79,54.22c.1-.04,.2-.09,.3-.13-.1,.04-.2,.09-.3,.13h0Z"/><path class="cls-1" d="M89.58,30.58c0-.93,.09-1.84,.27-2.72l-38.55-7.66c-1.25,6.29-6.81,11.05-13.46,11.05-3.15,0-6.05-1.07-8.37-2.86l-6.19,8.05c3.31,2.51,5.45,6.48,5.45,10.94,0,5.8-3.62,10.77-8.71,12.77l13.01,34.85c1.5-.56,3.12-.87,4.82-.87,6.65,0,12.21,4.75,13.46,11.04l38.57-7.71c-.19-.91-.29-1.85-.29-2.81,0-7.57,6.16-13.73,13.73-13.73V44.31h0c-7.57,0-13.73-6.16-13.73-13.73Z"/></g></g></g></svg>