<?xml version="1.0" encoding="utf-8"?>
<!-- Generator: Adobe Illustrator 27.6.1, SVG Export Plug-In . SVG Version: 6.00 Build 0)  -->
<svg version="1.1" id="Capa_1" xmlns="http://www.w3.org/2000/svg" xmlns:xlink="http://www.w3.org/1999/xlink" x="0px" y="0px"
	 viewBox="0 0 538.7 252.3" style="enable-background:new 0 0 538.7 252.3;" xml:space="preserve">
<style type="text/css">
	.st0{fill:#0061B1;}
	.st1{fill:#054382;}
	.st2{fill:#034484;}
	.st3{fill:#E93132;}
	.st4{fill:none;}
</style>
<g>
	<g>
		<g>
			<g>
				<path class="st0" d="M216.2,148.4c0-11.5,3.9-21.1,11.8-28.9c7.8-7.7,17.7-11.6,29.5-11.6c3.7,0,7.2,0.4,10.5,1.2
					c3.3,0.8,6.1,1.7,8.3,2.8c2.2,1.1,4.1,2.2,5.8,3.2c1.7,1.1,2.9,2,3.7,2.8l1.1,1.1l-8.9,14.5c-0.7-0.6-1.6-1.3-2.7-2.2
					c-1.2-0.9-3.5-2.1-6.9-3.6c-3.4-1.5-6.8-2.3-10-2.3c-7.1,0-12.6,2.2-16.4,6.6c-3.8,4.4-5.8,9.7-5.8,15.8c0,6.3,2,11.8,5.9,16.5
					c4,4.7,9.4,7.1,16.3,7.1c3.5,0,7-0.8,10.5-2.4c3.5-1.6,6.1-3.2,7.8-4.8l2.6-2.4l9.9,14.1c-0.3,0.4-0.7,0.8-1.3,1.4
					c-0.6,0.6-1.9,1.6-3.9,3.1c-2,1.5-4.2,2.8-6.4,4c-2.3,1.2-5.2,2.2-8.9,3.2c-3.6,1-7.3,1.4-11.2,1.4c-12.2,0-22.1-3.8-29.7-11.5
					C220,170,216.2,160.3,216.2,148.4z"/>
				<path class="st0" d="M295,168v-36.7h19v33.2c0,5,2,7.5,6,7.5c3.9,0,6.9-1.5,8.9-4.5c2.1-3,3.1-6.7,3.1-11.2v-25.1h19v56.6h-18.3
					V183l0.2-3.5h-0.2c-1.5,3-3.9,5.4-7.1,7.1c-3.2,1.8-6.7,2.6-10.6,2.6c-6.2,0-11-1.7-14.7-5C296.8,180.9,295,175.5,295,168z"/>
				<path class="st0" d="M362.4,187.9v-56.6h19v56.6H362.4z M362.6,124.1v-14.8h18.6v14.8H362.6z"/>
				<path class="st0" d="M395.9,181c-4.7-5.5-7-12.6-7-21.5c0-8.9,2.4-16,7.2-21.4c4.8-5.4,11-8.1,18.6-8.1c3.4,0,6.3,0.4,8.8,1.2
					c2.5,0.8,4.1,1.5,4.8,2.3l1.2,1.1h0.2c-0.1-0.7-0.1-1.6-0.1-2.5v-22.7h19v78.6h-17.8v-3.7l0.1-3.2h-0.2
					c-0.1,0.2-0.3,0.5-0.6,0.9c-0.3,0.4-0.9,1-1.8,2c-1,1-2,1.8-3.1,2.5c-1.1,0.7-2.7,1.4-4.6,2c-1.9,0.6-4,0.9-6.2,0.9
					C406.7,189.2,400.5,186.5,395.9,181z M411.2,149.7c-2.1,2.4-3.2,5.7-3.2,9.9c0,4.2,1,7.6,3.1,10.1c2.1,2.6,4.7,3.8,8,3.8
					c3.2,0,5.8-1.2,7.9-3.5c2.1-2.3,3.2-5.8,3.2-10.4c0-3.7-1-6.8-2.9-9.5c-1.9-2.7-4.7-4-8.2-4C416,146,413.4,147.2,411.2,149.7z"
					/>
				<path class="st0" d="M455.8,171c0-3.8,1.2-7.1,3.7-9.7c2.5-2.7,5.7-4.6,9.6-5.7c3.9-1.1,7.4-1.9,10.5-2.3c3.1-0.4,6.1-0.6,9-0.6
					h0.8v-1c0-4.2-2.8-6.3-8.4-6.3c-2.1,0-4.5,0.5-7,1.4c-2.5,0.9-4.6,1.8-6.1,2.7l-2.2,1.3l-6.6-13.4c0.7-0.6,1.8-1.3,3.1-2.1
					c1.4-0.8,4.1-1.9,8.2-3.2c4.1-1.4,8.3-2,12.4-2c8,0,14.2,2.1,18.7,6.2c4.5,4.1,6.8,9.7,6.8,16.9v34.9h-17.4v-3.4l0.2-3.5h-0.2
					c-0.1,0.2-0.3,0.5-0.5,0.9c-0.2,0.4-0.8,1-1.7,2c-0.9,1-1.9,1.8-3,2.5c-1.1,0.7-2.6,1.4-4.6,2c-1.9,0.6-4,0.9-6.2,0.9
					c-5.4,0-10-1.7-13.7-5C457.6,180.9,455.8,176.5,455.8,171z M474.9,170c0,1.4,0.5,2.5,1.4,3.4c0.9,0.9,2.3,1.3,4,1.3
					c2.4,0,4.6-1.1,6.5-3.2c1.9-2.1,2.9-4.4,2.9-6.8v-1.2h-1.8c-3.4,0-6.5,0.5-9.1,1.6C476.2,166.2,474.9,167.8,474.9,170z"/>
			</g>
			<g>
				<path class="st1" d="M246.9,33.6c14.4,0,21.8,7.9,21.8,7.9l-4.2,6.3c0,0-7-6.5-17.3-6.5c-13.4,0-22.2,10.2-22.2,22.9
					c0,12.8,8.9,23.7,22.2,23.7c11.3,0,18.5-7.8,18.5-7.8l4.5,6c0,0-8.2,9.5-23.3,9.5c-18,0-30.7-13.8-30.7-31.3
					C216.4,46.9,229.5,33.6,246.9,33.6z"/>
				<path class="st1" d="M278,34.7h8.2v22c0,2-0.2,3.6-0.2,3.6h0.2c1.9-4.2,7.3-9.6,15.9-9.6c10.1,0,14.8,5.5,14.8,16.5v27.5h-8.2
					V69c0-6-1.3-10.8-8.2-10.8c-6.5,0-11.8,4.4-13.6,10.6c-0.5,1.7-0.7,3.7-0.7,5.7v20.1H278V34.7z"/>
				<path class="st1" d="M327,34.7h8.3v8.4H327V34.7z M327,51.6h8.2v43H327V51.6z"/>
				<path class="st1" d="M345.6,34.7h8.2v46.8c0,5.2,2,6.1,4.6,6.1c0.8,0,1.4-0.1,1.4-0.1v7.3c0,0-1.3,0.2-2.7,0.2
					c-4.7,0-11.5-1.3-11.5-12.1V34.7z"/>
				<path class="st1" d="M385,50.6c12.1,0,18.6,9,18.6,20.1c0,1.1-0.3,3.6-0.3,3.6H372c0.4,9.4,7.1,14.2,14.8,14.2
					c7.4,0,12.7-5,12.7-5l3.4,6c0,0-6.4,6.1-16.6,6.1c-13.5,0-22.8-9.8-22.8-22.5C363.5,59.4,372.7,50.6,385,50.6z M395.1,68.1
					c-0.3-7.4-4.8-11-10.4-11c-6.3,0-11.4,3.9-12.6,11H395.1z"/>
			</g>
		</g>
		<g>
			<path class="st2" d="M108.4,87.1l8.2,11.4c0.5,0.7,1.4,1,2.2,0.7l13.3-4.2c1.8-0.6,3.3,1.5,2.2,3.1l-8.3,11.3
				c-0.5,0.7-0.5,1.6,0,2.3l8.2,11.4c1.1,1.6-0.4,3.6-2.2,3l-13.3-4.4c-0.8-0.3-1.7,0-2.2,0.7l-8.3,11.3c-1.1,1.6-3.6,0.7-3.6-1.2
				l0.1-14c0-0.9-0.5-1.6-1.4-1.9L90,112.2c-1.8-0.6-1.8-3.2,0-3.8l13.3-4.2c0.8-0.3,1.4-1,1.4-1.9l0.1-14
				C104.8,86.4,107.3,85.6,108.4,87.1z"/>
			<g>
				<path class="st0" d="M39.1,77.4c7.7,5.7,18.5,4.1,24.2-3.5c5.7-7.7,4.1-18.5-3.5-24.2c-7.7-5.7-18.5-4.1-24.2,3.5
					C29.8,60.8,31.4,71.7,39.1,77.4z"/>
				<path class="st2" d="M133.4,52c9,3.1,18.9-1.8,21.9-10.8c3.1-9-1.8-18.9-10.8-21.9c-9-3.1-18.9,1.8-21.9,10.8
					C119.5,39.1,124.3,48.9,133.4,52z"/>
				<path class="st2" d="M62.4,147.2c-5.5-7.8-16.3-9.6-24.1-4.1c-7.8,5.5-9.6,16.3-4.1,24.1c5.5,7.8,16.3,9.6,24.1,4.1
					C66.1,165.8,67.9,155,62.4,147.2z"/>
				<path class="st3" d="M131.9,170.7c-9.1,2.8-14.2,12.5-11.4,21.7c2.8,9.1,12.5,14.2,21.7,11.4c9.1-2.8,14.2-12.5,11.4-21.7
					C150.7,173,141,167.9,131.9,170.7z"/>
				<path class="st0" d="M175.8,111.9c-0.1,9.6,7.5,17.4,17.1,17.5c9.6,0.1,17.4-7.5,17.5-17.1c0.1-9.6-7.5-17.4-17.1-17.5
					C183.7,94.7,175.9,102.3,175.8,111.9z"/>
				<g>
					<path class="st4" d="M154.4,82.1c-9.8,0.6-20-0.6-29.9-4c-9.9-3.4-18.7-8.5-26.1-15c-2.5,9.6-6.8,18.8-13,27.2
						c-6.2,8.4-13.9,15.1-22.3,20.2c8.3,5.3,15.8,12.2,21.8,20.8c6,8.5,10.1,17.9,12.3,27.5c7.6-6.3,16.5-11.2,26.5-14.3
						c10-3.1,20.1-4.1,30-3.2c-3.6-9.2-5.6-19.2-5.5-29.6C148.3,101.1,150.5,91.2,154.4,82.1z"/>
					<path class="st0" d="M63.1,110.5c8.5-5.1,16.1-11.8,22.3-20.2c6.2-8.4,10.5-17.6,13-27.2c-3-2.6-5.8-5.5-8.4-8.5
						c-4.9-5.7-8.9-12.2-11.9-19c-0.1,0.1-0.2,0.1-0.3,0.2c1.2,8.3,0.5,16.8-2.1,25c-1.8,5.6-4.6,11.1-8.3,16.1
						c-3.7,5-8.2,9.2-13,12.5c-7,4.8-14.9,7.9-23.1,9.2c0,0.1,0,0.3-0.1,0.4c7.3,1,14.5,2.9,21.3,5.9
						C56.2,106.5,59.7,108.4,63.1,110.5z"/>
					<path class="st2" d="M100.5,51.4c-0.4,3.9-1.1,7.9-2.1,11.7c7.4,6.5,16.2,11.6,26.1,15c9.9,3.4,20,4.6,29.9,4
						c1.6-3.7,3.4-7.2,5.5-10.6c4-6.4,8.9-12.3,14.5-17.3c0.9,0.9,1.8,1.8,2.7,2.7c-0.9-1-1.8-2.1-2.8-3.1
						c-7.6,3.8-16.1,5.8-24.8,5.9c-5.9,0-11.9-0.9-17.8-2.9c-5.9-2-11.3-4.9-16-8.5c-6.8-5.2-12.2-11.9-16-19.4
						c-0.1,0-0.2,0-0.4,0.1C100.9,36.3,101.2,43.9,100.5,51.4z"/>
					<path class="st0" d="M98.4,63.1c1-3.9,1.7-7.8,2.1-11.7c0.7-7.5,0.4-15.1-1-22.5c-7.5,1.3-14.7,3.6-21.3,6.7
						c3,6.8,7,13.3,11.9,19C92.6,57.7,95.4,60.5,98.4,63.1z"/>
					<path class="st2" d="M97.2,158.8c-2.2-9.6-6.3-19-12.3-27.5c-6-8.5-13.5-15.5-21.8-20.8c-3.4-2.1-6.9-4-10.5-5.6
						c-6.8-3-14-5-21.3-5.9c-0.5,3.7-0.8,7.5-0.9,11.4c0,3.8,0.2,7.6,0.7,11.3c8.1,1.5,16,4.7,22.8,9.7c4.8,3.5,9.1,7.8,12.7,12.9
						s6.2,10.6,7.9,16.3c2.4,8.2,2.9,16.7,1.6,24.9c0.1,0.1,0.2,0.1,0.4,0.2c3.2-6.7,7.3-13,12.3-18.6
						C91.3,164.1,94.1,161.3,97.2,158.8z"/>
					<path class="st3" d="M114.2,174c4.8-3.5,10.2-6.3,16.2-8.1c6-1.9,12-2.6,17.9-2.5c8.7,0.2,17,2.5,24.5,6.4
						c0.6-0.6,1.3-1.3,1.9-1.9c-0.6,0.6-1.2,1.1-1.8,1.6c-5.5-5.2-10.2-11.1-14.1-17.6c-2-3.4-3.7-7-5.2-10.7
						c-9.8-0.9-20,0.1-30,3.2c-10,3.1-18.9,8.1-26.5,14.3c-3.1,2.6-6,5.3-8.6,8.3c-5,5.6-9.1,11.9-12.3,18.6
						c6.7,3.4,13.9,5.9,21.5,7.3C101.8,185.6,107.3,179.1,114.2,174z"/>
					<path class="st0" d="M174.4,54.2c-5.6,5-10.5,10.8-14.5,17.3c-2.1,3.4-3.9,6.9-5.5,10.6c-3.9,9.1-6.1,19-6.2,29.5
						c-0.1,10.5,1.8,20.5,5.5,29.6c1.5,3.7,3.2,7.3,5.2,10.7c3.8,6.5,8.6,12.5,14.1,17.6c0.6-0.5,1.2-1.1,1.8-1.6
						c4.6-5,8.6-10.5,11.9-16.4c-6-6.1-10.5-13.5-13.2-21.8c-1.8-5.6-2.8-11.6-2.7-17.9c0.1-6.2,1.2-12.2,3.2-17.8
						c2.9-8.2,7.7-15.5,13.8-21.5c-2.9-5.6-6.5-10.9-10.6-15.6C176.2,56,175.3,55.1,174.4,54.2z"/>
					<path class="st2" d="M154.3,82.1c4.1-0.2,8.1-0.8,12-1.6c7.5-1.6,14.7-4.3,21.4-7.9c-3.6-6.9-8.3-13.2-13.4-18.7
						c-5.7,5-10.4,11-14.4,17.5C157.8,74.8,155.9,78.4,154.3,82.1z"/>
				</g>
			</g>
		</g>
	</g>
	<g>
		<path class="st2" d="M30.7,230.6l3.1-4.4c0.2,0.2,0.5,0.4,0.8,0.7c0.4,0.3,1,0.6,2,1.1c1,0.5,1.9,0.7,2.8,0.7
			c0.7,0,1.3-0.1,1.8-0.4c0.5-0.3,0.7-0.8,0.7-1.4c0-0.4-0.3-0.8-0.8-1.2c-0.5-0.4-1.2-0.7-2-1c-0.8-0.3-1.6-0.7-2.6-1.1
			c-0.9-0.5-1.8-0.9-2.6-1.5c-0.8-0.5-1.4-1.2-2-2.1c-0.5-0.9-0.8-1.9-0.8-3.1c0-2.2,0.8-3.9,2.4-5.3c1.6-1.4,3.6-2,6-2
			c1.5,0,2.9,0.2,4.2,0.7c1.3,0.5,2.2,0.9,2.7,1.3l0.8,0.7l-2.5,4.8c-0.2-0.2-0.4-0.3-0.7-0.6c-0.3-0.2-0.9-0.5-1.9-0.9
			c-0.9-0.4-1.8-0.6-2.6-0.6c-0.7,0-1.3,0.1-1.8,0.4c-0.5,0.3-0.7,0.7-0.7,1.3c0,0.5,0.4,1,1.1,1.4c0.8,0.4,1.7,0.8,2.7,1.2
			c1.1,0.4,2.1,0.9,3.1,1.4c1,0.5,1.9,1.3,2.6,2.4s1.1,2.3,1.1,3.7c0,2.1-0.8,3.8-2.3,5.2c-1.5,1.4-3.5,2.1-6.1,2.1
			c-1,0-2.1-0.1-3-0.3c-1-0.2-1.8-0.5-2.4-0.8c-0.7-0.3-1.2-0.7-1.7-1c-0.5-0.3-0.9-0.6-1.1-0.9L30.7,230.6z"/>
		<path class="st2" d="M51.1,233.6v-17.1h5.8v17.1H51.1z M51.2,214.3v-4.5h5.6v4.5H51.2z"/>
		<path class="st2" d="M59.8,231.4l2.5-3.9c0.1,0.1,0.3,0.3,0.6,0.5c0.3,0.2,0.8,0.4,1.5,0.8c0.8,0.3,1.5,0.5,2.2,0.5
			c1.1,0,1.7-0.3,1.7-0.8c0-0.3-0.3-0.5-0.8-0.8c-0.6-0.3-1.2-0.5-2-0.8c-0.8-0.3-1.6-0.7-2.3-1.1c-0.8-0.4-1.5-1-2-1.8
			c-0.6-0.8-0.8-1.7-0.8-2.7c0-1.6,0.7-2.8,2-3.8c1.3-1,3-1.4,5-1.4c0.8,0,1.5,0.1,2.2,0.2c0.7,0.1,1.3,0.3,1.7,0.5
			c0.4,0.2,0.8,0.4,1.2,0.6c0.3,0.2,0.6,0.4,0.7,0.5l0.2,0.2l-2,4.1c-0.1-0.1-0.3-0.2-0.5-0.4c-0.2-0.2-0.7-0.4-1.4-0.6
			c-0.7-0.3-1.4-0.4-2.1-0.4c-1.1,0-1.7,0.3-1.7,0.8c0,0.2,0.3,0.4,0.8,0.7s1.2,0.5,2,0.8c0.8,0.3,1.6,0.6,2.3,1
			c0.8,0.4,1.5,1,2,1.8c0.6,0.8,0.8,1.7,0.8,2.7c0,1.5-0.6,2.8-1.9,3.9c-1.3,1-3,1.6-5.1,1.6c-1.3,0-2.5-0.2-3.6-0.6
			c-1.1-0.4-2-0.8-2.5-1.3L59.8,231.4z"/>
		<path class="st2" d="M77.7,227.2v-6h-2.2v-4.5h2.4v-4.9h5.6v4.9H87v4.5h-3.6v5.3c0,1.5,1,2.2,3.1,2.2l0.8,0v5
			c-0.4,0.1-0.9,0.1-1.6,0.1c-0.5,0-1,0-1.5-0.1c-0.5-0.1-1.1-0.2-1.7-0.3c-0.7-0.2-1.2-0.4-1.8-0.7c-0.5-0.3-1-0.7-1.5-1.1
			c-0.5-0.5-0.8-1-1.1-1.8C77.8,229,77.7,228.2,77.7,227.2z"/>
		<path class="st2" d="M89.4,225c0-2.6,0.8-4.7,2.4-6.4c1.6-1.7,3.8-2.5,6.5-2.5c2.5,0,4.4,0.8,5.8,2.3c1.4,1.5,2.1,3.5,2.1,6
			l-0.1,1.8H95.2c0.2,1,0.7,1.8,1.4,2.3c0.7,0.5,1.6,0.8,2.6,0.8c0.7,0,1.5-0.1,2.3-0.4c0.8-0.3,1.4-0.6,1.8-0.9l0.6-0.4l2.1,4
			c-0.2,0.2-0.5,0.4-0.9,0.7c-0.4,0.3-1.2,0.6-2.5,1.1c-1.3,0.5-2.6,0.7-3.9,0.7c-2.9,0-5.2-0.9-6.9-2.7S89.4,227.4,89.4,225z
			 M95.4,222.8h5c0-0.7-0.2-1.2-0.6-1.7c-0.4-0.5-1-0.7-1.6-0.7C96.7,220.4,95.8,221.2,95.4,222.8z"/>
		<path class="st2" d="M109.3,233.6v-17.1h5.5v1.5l-0.1,1.1h0.1c1.3-2,3-3,5.1-3c2.3,0,3.9,1,4.8,2.9h0.1c0.5-0.8,1.2-1.5,2.2-2
			c1-0.6,2.1-0.8,3.3-0.8c1.7,0,3,0.5,4,1.5c1,1,1.5,2.6,1.5,4.9v11.1h-5.8v-10.1c0-1.4-0.4-2.2-1.3-2.2c-1.7,0-2.7,1.1-3.2,3.2
			c-0.1,0.4-0.1,1.1-0.1,2v7.1h-5.8v-10.1c0-1.4-0.4-2.2-1.3-2.2c-1.6,0-2.7,1-3.1,3.1c-0.1,0.5-0.2,1.2-0.2,2.1v7.1H109.3z"/>
		<path class="st2" d="M138.5,228.4c0-1.2,0.4-2.1,1.1-2.9c0.8-0.8,1.7-1.4,2.9-1.7c1.2-0.3,2.2-0.6,3.2-0.7
			c0.9-0.1,1.8-0.2,2.7-0.2h0.2v-0.3c0-1.3-0.8-1.9-2.5-1.9c-0.6,0-1.3,0.1-2.1,0.4c-0.8,0.3-1.4,0.5-1.8,0.8l-0.7,0.4l-2-4.1
			c0.2-0.2,0.5-0.4,0.9-0.6c0.4-0.2,1.2-0.6,2.5-1c1.3-0.4,2.5-0.6,3.7-0.6c2.4,0,4.3,0.6,5.7,1.9c1.4,1.2,2,2.9,2,5.1v10.5h-5.3v-1
			l0.1-1.1h-0.1c0,0.1-0.1,0.2-0.2,0.3c-0.1,0.1-0.2,0.3-0.5,0.6c-0.3,0.3-0.6,0.5-0.9,0.8c-0.3,0.2-0.8,0.4-1.4,0.6
			c-0.6,0.2-1.2,0.3-1.9,0.3c-1.6,0-3-0.5-4.1-1.5C139.1,231.4,138.5,230.1,138.5,228.4z M144.3,228.1c0,0.4,0.1,0.8,0.4,1
			c0.3,0.3,0.7,0.4,1.2,0.4c0.7,0,1.4-0.3,2-1c0.6-0.6,0.9-1.3,0.9-2.1v-0.4h-0.5c-1,0-2,0.2-2.7,0.5
			C144.7,227,144.3,227.5,144.3,228.1z"/>
		<path class="st2" d="M166.7,233.6v-23.8h5.9l6.6,11.1c0.2,0.5,0.5,1.1,0.8,1.8c0.3,0.7,0.6,1.3,0.8,1.7l0.3,0.6h0.1
			c-0.2-1.7-0.3-3.1-0.3-4.1v-11.1h5.8v23.8H181l-6.6-11.1c-0.3-0.5-0.6-1-0.9-1.7c-0.3-0.7-0.6-1.3-0.8-1.7l-0.3-0.6h-0.1
			c0.2,1.7,0.3,3.1,0.3,4.1v11.1H166.7z"/>
		<path class="st2" d="M190.5,228.4c0-1.2,0.4-2.1,1.1-2.9c0.8-0.8,1.7-1.4,2.9-1.7c1.2-0.3,2.2-0.6,3.2-0.7
			c0.9-0.1,1.8-0.2,2.7-0.2h0.2v-0.3c0-1.3-0.8-1.9-2.5-1.9c-0.6,0-1.3,0.1-2.1,0.4c-0.8,0.3-1.4,0.5-1.8,0.8l-0.7,0.4l-2-4.1
			c0.2-0.2,0.5-0.4,0.9-0.6c0.4-0.2,1.2-0.6,2.5-1c1.3-0.4,2.5-0.6,3.7-0.6c2.4,0,4.3,0.6,5.7,1.9c1.4,1.2,2,2.9,2,5.1v10.5h-5.3v-1
			l0.1-1.1h-0.1c0,0.1-0.1,0.2-0.2,0.3c-0.1,0.1-0.2,0.3-0.5,0.6c-0.3,0.3-0.6,0.5-0.9,0.8c-0.3,0.2-0.8,0.4-1.4,0.6
			c-0.6,0.2-1.2,0.3-1.9,0.3c-1.6,0-3-0.5-4.1-1.5C191,231.4,190.5,230.1,190.5,228.4z M196.2,228.1c0,0.4,0.1,0.8,0.4,1
			c0.3,0.3,0.7,0.4,1.2,0.4c0.7,0,1.4-0.3,2-1c0.6-0.6,0.9-1.3,0.9-2.1v-0.4h-0.5c-1,0-2,0.2-2.7,0.5
			C196.6,227,196.2,227.5,196.2,228.1z"/>
		<path class="st2" d="M209.1,225c0-2.4,0.9-4.5,2.6-6.3c1.7-1.8,4-2.6,7-2.6c0.9,0,1.7,0.1,2.5,0.3c0.8,0.2,1.4,0.4,1.9,0.6
			c0.5,0.3,1,0.5,1.3,0.8c0.4,0.3,0.6,0.5,0.8,0.6l0.3,0.3l-2.4,3.9c-0.1-0.1-0.3-0.3-0.5-0.5c-0.2-0.2-0.7-0.4-1.4-0.7
			c-0.7-0.3-1.4-0.5-2.1-0.5c-1.3,0-2.3,0.4-3,1.2c-0.7,0.8-1.1,1.8-1.1,2.9c0,1.1,0.4,2.1,1.1,3c0.8,0.9,1.8,1.3,3.2,1.3
			c0.7,0,1.5-0.2,2.2-0.5c0.8-0.3,1.4-0.7,1.8-1l0.6-0.5l2.1,4c-0.1,0.1-0.2,0.2-0.3,0.3c-0.1,0.1-0.4,0.4-0.9,0.7
			c-0.5,0.3-1,0.6-1.5,0.9c-0.5,0.3-1.2,0.5-2.1,0.7c-0.8,0.2-1.7,0.3-2.6,0.3c-2.9,0-5.2-0.9-7-2.6
			C210,229.6,209.1,227.5,209.1,225z"/>
		<path class="st2" d="M228.7,233.6v-17.1h5.8v17.1H228.7z M228.8,214.3v-4.5h5.6v4.5H228.8z"/>
		<path class="st2" d="M240.2,231.5c-1.9-1.7-2.8-3.8-2.8-6.4c0-2.6,0.9-4.8,2.8-6.5c1.9-1.7,4.2-2.5,6.9-2.5c2.7,0,5.1,0.8,6.9,2.5
			c1.9,1.7,2.8,3.8,2.8,6.5c0,2.6-0.9,4.8-2.8,6.4c-1.9,1.7-4.2,2.5-6.9,2.5C244.4,234,242.1,233.1,240.2,231.5z M243.3,225.1
			c0,1.2,0.4,2.2,1.1,3c0.8,0.8,1.7,1.1,2.8,1.1c1.1,0,2-0.4,2.8-1.1c0.8-0.8,1.1-1.8,1.1-3c0-1.3-0.4-2.3-1.1-3.1
			c-0.8-0.8-1.7-1.2-2.8-1.2c-1.1,0-2,0.4-2.8,1.2C243.6,222.8,243.3,223.8,243.3,225.1z"/>
		<path class="st2" d="M259.9,233.6v-17.1h5.5v1.5l-0.1,1.1h0.1c1.2-2,3-3,5.5-3c4.1,0,6.2,2.1,6.2,6.4v11.1h-5.8v-10
			c0-1.5-0.6-2.3-1.9-2.3c-1.7,0-2.8,0.8-3.4,2.5c-0.2,0.6-0.3,1.4-0.3,2.3v7.6H259.9z"/>
		<path class="st2" d="M279.7,228.4c0-1.2,0.4-2.1,1.1-2.9c0.8-0.8,1.7-1.4,2.9-1.7c1.2-0.3,2.2-0.6,3.2-0.7
			c0.9-0.1,1.8-0.2,2.7-0.2h0.2v-0.3c0-1.3-0.8-1.9-2.5-1.9c-0.6,0-1.3,0.1-2.1,0.4c-0.8,0.3-1.4,0.5-1.8,0.8l-0.7,0.4l-2-4.1
			c0.2-0.2,0.5-0.4,0.9-0.6c0.4-0.2,1.2-0.6,2.5-1c1.3-0.4,2.5-0.6,3.7-0.6c2.4,0,4.3,0.6,5.7,1.9c1.4,1.2,2,2.9,2,5.1v10.5h-5.3v-1
			l0.1-1.1h-0.1c0,0.1-0.1,0.2-0.2,0.3c-0.1,0.1-0.2,0.3-0.5,0.6c-0.3,0.3-0.6,0.5-0.9,0.8c-0.3,0.2-0.8,0.4-1.4,0.6
			c-0.6,0.2-1.2,0.3-1.9,0.3c-1.6,0-3-0.5-4.1-1.5C280.3,231.4,279.7,230.1,279.7,228.4z M285.5,228.1c0,0.4,0.1,0.8,0.4,1
			c0.3,0.3,0.7,0.4,1.2,0.4c0.7,0,1.4-0.3,2-1c0.6-0.6,0.9-1.3,0.9-2.1v-0.4h-0.5c-1,0-2,0.2-2.7,0.5
			C285.9,227,285.5,227.5,285.5,228.1z"/>
		<path class="st2" d="M299.4,227.2v-17.5h5.8v16.7c0,0.8,0.1,1.4,0.3,1.7c0.2,0.3,0.6,0.5,1.3,0.5l0.7,0v5
			c-0.5,0.1-1.1,0.1-1.7,0.1c-0.9,0-1.7-0.1-2.3-0.2c-0.7-0.1-1.3-0.4-2-0.8c-0.7-0.4-1.2-1.1-1.5-2
			C299.6,229.8,299.4,228.6,299.4,227.2z"/>
		<path class="st2" d="M325.8,216.3c3.9,0,5.2,2.7,5.2,2.7h0.1c0,0-0.1-0.5-0.1-1.1v-7.8h3.2v23.5h-3.1V232c0-0.7,0-1.1,0-1.1h-0.1
			c0,0-1.4,3.1-5.5,3.1c-4.6,0-7.4-3.6-7.4-8.8C318.2,219.8,321.4,216.3,325.8,216.3z M326.3,231.2c2.5,0,4.9-1.8,4.9-6.1
			c0-3-1.6-6-4.8-6c-2.7,0-4.9,2.2-4.9,6C321.5,228.8,323.5,231.2,326.3,231.2z"/>
		<path class="st2" d="M346.6,216.3c4.8,0,7.3,3.5,7.3,7.9c0,0.4-0.1,1.4-0.1,1.4h-12.3c0.2,3.7,2.8,5.6,5.8,5.6c2.9,0,5-2,5-2
			l1.3,2.4c0,0-2.5,2.4-6.5,2.4c-5.3,0-8.9-3.8-8.9-8.8C338.1,219.8,341.8,216.3,346.6,216.3z M350.5,223.2
			c-0.1-2.9-1.9-4.3-4.1-4.3c-2.5,0-4.5,1.5-4.9,4.3H350.5z"/>
		<path class="st2" d="M377.3,209.7c5.7,0,8.5,3.1,8.5,3.1l-1.6,2.5c0,0-2.7-2.6-6.8-2.6c-5.3,0-8.7,4-8.7,9c0,5,3.5,9.3,8.7,9.3
			c4.4,0,7.2-3.1,7.2-3.1l1.8,2.4c0,0-3.2,3.7-9.1,3.7c-7.1,0-12-5.4-12-12.3C365.4,214.9,370.5,209.7,377.3,209.7z"/>
		<path class="st2" d="M390.1,216.7h3.2v10c0,2.3,0.5,4.2,3.2,4.2c3.4,0,5.5-3,5.5-6.4v-7.9h3.2v16.8H402v-2.2
			c0-0.7,0.1-1.2,0.1-1.2H402c-0.7,1.7-2.9,3.9-6.2,3.9c-3.8,0-5.8-2-5.8-6.5V216.7z"/>
		<path class="st2" d="M410.2,210.1h3.3v3.3h-3.3V210.1z M410.2,216.7h3.2v16.8h-3.2V216.7z"/>
		<path class="st2" d="M425,216.3c3.9,0,5.2,2.7,5.2,2.7h0.1c0,0-0.1-0.5-0.1-1.1v-7.8h3.2v23.5h-3.1V232c0-0.7,0-1.1,0-1.1h-0.1
			c0,0-1.4,3.1-5.5,3.1c-4.6,0-7.4-3.6-7.4-8.8C417.4,219.8,420.5,216.3,425,216.3z M425.4,231.2c2.5,0,4.9-1.8,4.9-6.1
			c0-3-1.6-6-4.8-6c-2.7,0-4.9,2.2-4.9,6C420.7,228.8,422.6,231.2,425.4,231.2z"/>
		<path class="st2" d="M447.2,223.1h0.7v-0.3c0-2.8-1.6-3.7-3.7-3.7c-2.6,0-4.7,1.6-4.7,1.6l-1.3-2.4c0,0,2.4-2,6.3-2
			c4.3,0,6.7,2.3,6.7,6.6v10.6h-3V232c0-0.8,0.1-1.3,0.1-1.3h-0.1c0,0-1.4,3.3-5.4,3.3c-2.9,0-5.7-1.8-5.7-5.1
			C437.1,223.3,444.4,223.1,447.2,223.1z M443.5,231.4c2.7,0,4.5-2.9,4.5-5.4v-0.5h-0.8c-2.4,0-6.8,0.2-6.8,3.2
			C440.4,230,441.4,231.4,443.5,231.4z"/>
		<path class="st2" d="M462.5,216.3c3.9,0,5.2,2.7,5.2,2.7h0.1c0,0-0.1-0.5-0.1-1.1v-7.8h3.2v23.5h-3.1V232c0-0.7,0-1.1,0-1.1h-0.1
			c0,0-1.4,3.1-5.5,3.1c-4.6,0-7.4-3.6-7.4-8.8C454.9,219.8,458.1,216.3,462.5,216.3z M463,231.2c2.5,0,4.9-1.8,4.9-6.1
			c0-3-1.6-6-4.8-6c-2.7,0-4.9,2.2-4.9,6C458.2,228.8,460.2,231.2,463,231.2z"/>
		<path class="st2" d="M483.9,216.3c5,0,9.1,3.7,9.1,8.8c0,5.1-4.1,8.8-9.1,8.8s-9.1-3.7-9.1-8.8C474.8,220,478.8,216.3,483.9,216.3
			z M483.9,231.2c3.2,0,5.8-2.5,5.8-6.1c0-3.5-2.6-6-5.8-6c-3.2,0-5.8,2.5-5.8,6C478.1,228.6,480.7,231.2,483.9,231.2z"/>
		<path class="st2" d="M497,229.2c0,0,1.9,2,4.8,2c1.4,0,2.8-0.7,2.8-2.1c0-3.1-8.6-2.5-8.6-7.9c0-3.1,2.7-4.8,6.1-4.8
			c3.7,0,5.4,1.9,5.4,1.9l-1.3,2.4c0,0-1.5-1.5-4.2-1.5c-1.4,0-2.8,0.6-2.8,2.1c0,3,8.6,2.4,8.6,7.9c0,2.8-2.4,4.9-6.1,4.9
			c-4.1,0-6.4-2.5-6.4-2.5L497,229.2z"/>
	</g>
</g>
</svg>
