<?xml version="1.0" encoding="utf-8"?>
<!-- Generator: Adobe Illustrator 16.0.0, SVG Export Plug-In . SVG Version: 6.00 Build 0)  -->
<!DOCTYPE svg PUBLIC "-//W3C//DTD SVG 1.1//EN" "http://www.w3.org/Graphics/SVG/1.1/DTD/svg11.dtd">
<svg version="1.1" id="Capa_1" xmlns="http://www.w3.org/2000/svg" xmlns:xlink="http://www.w3.org/1999/xlink" x="0px" y="0px"
	 width="544px" height="243px" viewBox="0 0 544 243" enable-background="new 0 0 544 243" xml:space="preserve">
<g>
	<g>
		<g>
			<g>
				<path fill="#FFFFFF" d="M215.661,140.469c0-11.611,3.938-21.307,11.916-29.183c7.877-7.776,17.874-11.715,29.79-11.715
					c3.737,0,7.271,0.404,10.604,1.213c3.332,0.808,6.16,1.717,8.382,2.828c2.222,1.111,4.14,2.222,5.855,3.23
					c1.717,1.111,2.929,2.02,3.736,2.828l1.111,1.111l-8.988,14.642c-0.707-0.605-1.615-1.313-2.728-2.221
					c-1.211-0.91-3.532-2.122-6.967-3.636c-3.433-1.516-6.867-2.323-10.098-2.323c-7.17,0-12.724,2.222-16.562,6.665
					c-3.838,4.443-5.857,9.797-5.857,15.957c0,6.359,2.02,11.916,5.958,16.662c4.04,4.746,9.493,7.17,16.46,7.17
					c3.534,0,7.069-0.809,10.603-2.424c3.535-1.615,6.16-3.232,7.876-4.848l2.626-2.424l9.997,14.238
					c-0.303,0.402-0.707,0.807-1.313,1.414c-0.605,0.604-1.918,1.613-3.938,3.131c-2.021,1.514-4.241,2.826-6.463,4.039
					c-2.322,1.211-5.251,2.221-8.987,3.23c-3.636,1.01-7.372,1.414-11.311,1.414c-12.32,0-22.317-3.838-29.992-11.613
					C219.499,162.281,215.661,152.486,215.661,140.469z"/>
				<path fill="#FFFFFF" d="M295.236,160.262v-37.061h19.187v33.525c0,5.051,2.021,7.574,6.061,7.574
					c3.938,0,6.968-1.516,8.986-4.545c2.121-3.029,3.131-6.766,3.131-11.311V123.1h19.188v57.158h-18.479v-4.848l0.201-3.535h-0.201
					c-1.515,3.029-3.938,5.453-7.17,7.17c-3.23,1.818-6.767,2.625-10.704,2.625c-6.262,0-11.107-1.717-14.846-5.049
					C297.055,173.289,295.236,167.836,295.236,160.262z"/>
				<path fill="#FFFFFF" d="M363.3,180.357v-57.156h19.188v57.156H363.3z M363.501,115.93v-14.945h18.783v14.945H363.501z"/>
				<path fill="#FFFFFF" d="M397.129,173.391c-4.746-5.555-7.068-12.725-7.068-21.713c0-8.986,2.424-16.156,7.271-21.609
					c4.847-5.453,11.108-8.18,18.783-8.18c3.434,0,6.36,0.405,8.887,1.211c2.524,0.809,4.14,1.516,4.847,2.322l1.212,1.111h0.202
					c-0.102-0.707-0.102-1.615-0.102-2.523v-22.924h19.188v79.374h-17.976v-3.736l0.102-3.23h-0.201
					c-0.102,0.201-0.304,0.504-0.605,0.908c-0.304,0.404-0.909,1.01-1.818,2.02c-1.01,1.01-2.02,1.818-3.13,2.525
					s-2.728,1.414-4.646,2.02c-1.919,0.605-4.04,0.908-6.263,0.908C408.035,181.67,401.774,178.943,397.129,173.391z
					 M412.579,141.781c-2.12,2.424-3.231,5.758-3.231,9.998s1.011,7.676,3.131,10.199c2.121,2.625,4.746,3.838,8.079,3.838
					c3.231,0,5.856-1.213,7.979-3.535c2.12-2.322,3.23-5.855,3.23-10.502c0-3.736-1.01-6.867-2.929-9.594s-4.746-4.039-8.28-4.039
					C417.427,138.045,414.801,139.258,412.579,141.781z"/>
				<path fill="#FFFFFF" d="M457.618,163.291c0-3.836,1.212-7.17,3.735-9.795c2.524-2.727,5.758-4.646,9.694-5.756
					c3.938-1.111,7.474-1.918,10.604-2.322s6.159-0.605,9.089-0.605h0.808v-1.01c0-4.242-2.827-6.363-8.481-6.363
					c-2.121,0-4.544,0.506-7.069,1.414c-2.524,0.908-4.646,1.818-6.159,2.729l-2.223,1.313l-6.664-13.531
					c0.706-0.605,1.816-1.314,3.13-2.121c1.414-0.809,4.141-1.918,8.281-3.23c4.14-1.414,8.382-2.02,12.521-2.02
					c8.079,0,14.34,2.12,18.884,6.26c4.546,4.141,6.867,9.795,6.867,17.066v35.242h-17.57v-3.434l0.201-3.533h-0.201
					c-0.102,0.201-0.304,0.504-0.506,0.908c-0.201,0.404-0.808,1.01-1.717,2.02c-0.908,1.012-1.918,1.818-3.028,2.525
					s-2.626,1.414-4.646,2.02c-1.918,0.605-4.039,0.908-6.261,0.908c-5.453,0-10.1-1.717-13.835-5.049
					C459.437,173.289,457.618,168.846,457.618,163.291z M476.906,162.281c0,1.414,0.505,2.523,1.414,3.434
					c0.907,0.91,2.321,1.314,4.039,1.314c2.424,0,4.646-1.111,6.563-3.232c1.918-2.119,2.928-4.443,2.928-6.865v-1.213h-1.816
					c-3.435,0-6.563,0.506-9.189,1.615C478.219,158.445,476.906,160.061,476.906,162.281z"/>
			</g>
			<g>
				<path fill="#FFFFFF" d="M246.663,24.541c14.542,0,22.015,7.978,22.015,7.978l-4.242,6.362c0,0-7.069-6.563-17.47-6.563
					c-13.532,0-22.418,10.301-22.418,23.125c0,12.927,8.987,23.934,22.418,23.934c11.411,0,18.682-7.876,18.682-7.876l4.543,6.06
					c0,0-8.28,9.592-23.528,9.592c-18.177,0-31.002-13.936-31.002-31.607C215.863,37.971,229.092,24.541,246.663,24.541z"/>
				<path fill="#FFFFFF" d="M278.068,25.651h8.281v22.216c0,2.02-0.201,3.635-0.201,3.635h0.201
					c1.918-4.241,7.371-9.694,16.057-9.694c10.199,0,14.944,5.555,14.944,16.664v27.771h-8.279V60.289
					c0-6.06-1.313-10.906-8.28-10.906c-6.564,0-11.916,4.443-13.734,10.705c-0.505,1.718-0.707,3.735-0.707,5.756v20.298h-8.279
					v-60.49H278.068z"/>
				<path fill="#FFFFFF" d="M327.551,25.651h8.382v8.481h-8.382V25.651z M327.551,42.717h8.281v43.424h-8.281V42.717z"/>
				<path fill="#FFFFFF" d="M346.334,25.651h8.281v47.26c0,5.251,2.02,6.16,4.645,6.16c0.81,0,1.414-0.102,1.414-0.102v7.372
					c0,0-1.313,0.202-2.727,0.202c-4.746,0-11.613-1.313-11.613-12.219V25.651z"/>
				<path fill="#FFFFFF" d="M386.122,41.708c12.219,0,18.782,9.089,18.782,20.298c0,1.111-0.304,3.636-0.304,3.636h-31.606
					c0.403,9.492,7.17,14.34,14.945,14.34c7.473,0,12.824-5.049,12.824-5.049l3.435,6.059c0,0-6.463,6.16-16.765,6.16
					c-13.633,0-23.023-9.896-23.023-22.721C364.41,50.593,373.701,41.708,386.122,41.708z M396.321,59.379
					c-0.304-7.473-4.849-11.107-10.503-11.107c-6.361,0-11.513,3.938-12.725,11.107H396.321z"/>
			</g>
		</g>
		<g>
			<path fill="#FFFFFF" d="M106.8,78.567l8.281,11.512c0.505,0.707,1.414,1.01,2.222,0.707l13.431-4.241
				c1.818-0.606,3.333,1.515,2.222,3.13l-8.381,11.411c-0.505,0.707-0.505,1.616,0,2.323l8.281,11.512
				c1.111,1.616-0.404,3.636-2.222,3.029l-13.431-4.443c-0.808-0.303-1.717,0-2.222,0.707l-8.381,11.412
				c-1.111,1.615-3.636,0.707-3.636-1.213l0.101-14.136c0-0.909-0.505-1.616-1.414-1.92l-13.431-4.442
				c-1.817-0.606-1.817-3.231,0-3.837l13.431-4.241c0.808-0.303,1.414-1.01,1.414-1.918l0.101-14.138
				C103.165,77.86,105.689,77.051,106.8,78.567z"/>
			<g>
				<path fill="#FFFFFF" d="M36.819,68.772c7.775,5.756,18.682,4.14,24.438-3.535c5.756-7.776,4.14-18.682-3.535-24.438
					c-7.775-5.756-18.682-4.14-24.438,3.535C27.427,52.007,29.043,63.014,36.819,68.772z"/>
				<path fill="#FFFFFF" d="M132.046,43.122c9.088,3.13,19.086-1.818,22.116-10.906c3.13-9.089-1.818-19.086-10.906-22.115
					c-9.089-3.131-19.086,1.817-22.116,10.905C118.01,30.094,122.857,39.991,132.046,43.122z"/>
				<path fill="#FFFFFF" d="M60.348,139.258c-5.554-7.877-16.46-9.695-24.337-4.141c-7.876,5.555-9.694,16.461-4.14,24.338
					c5.554,7.877,16.46,9.693,24.337,4.139C64.084,158.041,65.902,147.135,60.348,139.258z"/>
				<path fill="#FFFFFF" d="M130.532,162.988c-9.189,2.828-14.34,12.623-11.512,21.914c2.828,9.189,12.623,14.34,21.914,11.512
					c9.189-2.828,14.34-12.623,11.512-21.914C149.517,165.311,139.721,160.162,130.532,162.988z"/>
				<path fill="#FFFFFF" d="M174.864,103.61c-0.101,9.695,7.574,17.571,17.268,17.673c9.694,0.101,17.571-7.574,17.672-17.269
					c0.101-9.695-7.574-17.572-17.269-17.673C182.841,86.242,174.964,93.917,174.864,103.61z"/>
				<g>
					<path fill="#FFFFFF" d="M61.055,102.196c8.583-5.149,16.258-11.916,22.52-20.398c6.261-8.482,10.604-17.773,13.128-27.468
						c-3.03-2.625-5.857-5.554-8.483-8.583c-4.948-5.756-8.987-12.32-12.017-19.188c-0.101,0.102-0.202,0.102-0.303,0.203
						c1.212,8.381,0.505,16.965-2.121,25.245c-1.818,5.655-4.646,11.209-8.382,16.259c-3.736,5.049-8.281,9.291-13.128,12.623
						c-7.069,4.848-15.046,7.979-23.327,9.291c0,0.101,0,0.303-0.101,0.403c7.372,1.01,14.643,2.929,21.51,5.958
						C54.087,98.158,57.622,100.076,61.055,102.196z"/>
					<path fill="#FFFFFF" d="M98.823,42.516c-0.404,3.938-1.111,7.978-2.121,11.814c7.473,6.564,16.359,11.714,26.357,15.148
						c9.997,3.433,20.197,4.645,30.194,4.039c1.616-3.736,3.434-7.271,5.554-10.705c4.04-6.463,8.988-12.42,14.643-17.47
						c0.909,0.909,1.818,1.817,2.727,2.728c-0.909-1.01-1.817-2.121-2.828-3.131c-7.675,3.836-16.258,5.856-25.044,5.957
						c-5.958,0-12.017-0.908-17.975-2.929c-5.958-2.02-11.411-4.948-16.157-8.583c-6.867-5.251-12.32-12.017-16.158-19.591
						c-0.101,0-0.202,0-0.404,0.101C99.227,27.266,99.53,34.942,98.823,42.516z"/>
					<path fill="#FFFFFF" d="M96.702,54.331c1.01-3.938,1.717-7.876,2.121-11.814c0.707-7.574,0.404-15.25-1.01-22.723
						c-7.574,1.313-14.845,3.636-21.51,6.766c3.03,6.867,7.069,13.432,12.017,19.188C90.845,48.876,93.672,51.705,96.702,54.331z"/>
					<path fill="#FFFFFF" d="M95.49,150.973c-2.222-9.695-6.362-19.188-12.421-27.771c-6.059-8.583-13.633-15.653-22.015-21.005
						c-3.434-2.12-6.968-4.039-10.603-5.654c-6.867-3.03-14.138-5.049-21.51-5.958c-0.505,3.735-0.808,7.574-0.909,11.512
						c0,3.837,0.202,7.675,0.707,11.411c8.18,1.516,16.158,4.747,23.024,9.794c4.847,3.535,9.189,7.877,12.825,13.027
						c3.635,5.148,6.261,10.705,7.978,16.461c2.424,8.279,2.929,16.863,1.616,25.145c0.101,0.102,0.202,0.102,0.404,0.201
						c3.231-6.766,7.372-13.127,12.421-18.783C89.532,156.324,92.36,153.496,95.49,150.973z"/>
					<path fill="#FFFFFF" d="M112.658,166.32c4.847-3.533,10.3-6.361,16.359-8.18c6.059-1.918,12.118-2.625,18.076-2.523
						c8.786,0.201,17.167,2.523,24.741,6.463c0.606-0.605,1.313-1.314,1.919-1.918c-0.606,0.604-1.212,1.109-1.818,1.615
						c-5.554-5.252-10.3-11.209-14.239-17.773c-2.02-3.434-3.736-7.068-5.251-10.805c-9.896-0.91-20.197,0.1-30.295,3.23
						s-19.086,8.18-26.761,14.439c-3.13,2.627-6.059,5.354-8.685,8.383c-5.049,5.654-9.189,12.016-12.421,18.783
						c6.766,3.434,14.037,5.957,21.711,7.371C100.136,178.035,105.689,171.471,112.658,166.32z"/>
					<path fill="#FFFFFF" d="M173.45,45.342c-5.655,5.049-10.603,10.906-14.643,17.471c-2.121,3.433-3.938,6.967-5.554,10.703
						c-3.938,9.189-6.16,19.188-6.261,29.791c-0.101,10.604,1.817,20.701,5.554,29.892c1.515,3.734,3.231,7.371,5.251,10.805
						c3.837,6.564,8.685,12.623,14.239,17.773c0.606-0.506,1.212-1.111,1.817-1.615c4.646-5.051,8.685-10.605,12.017-16.563
						c-6.059-6.16-10.603-13.633-13.33-22.015c-1.818-5.655-2.828-11.714-2.727-18.076c0.101-6.261,1.212-12.32,3.231-17.975
						c2.929-8.281,7.776-15.652,13.936-21.711c-2.928-5.655-6.564-11.008-10.704-15.754
						C175.268,47.161,174.359,46.251,173.45,45.342z"/>
					<path fill="#FFFFFF" d="M153.152,73.518c4.141-0.203,8.18-0.809,12.118-1.617c7.574-1.615,14.845-4.342,21.611-7.978
						c-3.636-6.968-8.382-13.33-13.532-18.884c-5.756,5.049-10.502,11.107-14.542,17.672
						C156.687,66.145,154.768,69.78,153.152,73.518z"/>
				</g>
			</g>
		</g>
	</g>
	<g>
		<path fill="#FFFFFF" d="M28.336,223.479l3.13-4.443c0.202,0.203,0.505,0.404,0.808,0.707c0.404,0.303,1.01,0.605,2.02,1.109
			c1.01,0.508,1.919,0.707,2.828,0.707c0.707,0,1.313-0.1,1.818-0.402c0.505-0.305,0.707-0.809,0.707-1.414
			c0-0.404-0.303-0.809-0.808-1.211c-0.505-0.404-1.212-0.707-2.02-1.012c-0.808-0.303-1.616-0.707-2.626-1.109
			c-0.909-0.504-1.817-0.908-2.625-1.516c-0.808-0.506-1.414-1.211-2.02-2.119c-0.505-0.91-0.808-1.92-0.808-3.133
			c0-2.221,0.808-3.938,2.424-5.352c1.616-1.414,3.635-2.02,6.059-2.02c1.515,0,2.929,0.201,4.241,0.705
			c1.313,0.506,2.222,0.91,2.727,1.314l0.808,0.707l-2.525,4.846c-0.202-0.201-0.404-0.303-0.707-0.604
			c-0.303-0.203-0.909-0.506-1.919-0.91c-0.909-0.404-1.818-0.605-2.625-0.605c-0.707,0-1.313,0.102-1.818,0.404
			c-0.505,0.301-0.707,0.707-0.707,1.313c0,0.506,0.404,1.012,1.11,1.414c0.808,0.404,1.717,0.809,2.727,1.213
			c1.111,0.402,2.121,0.908,3.131,1.412c1.01,0.506,1.918,1.314,2.625,2.426c0.707,1.109,1.111,2.32,1.111,3.734
			c0,2.121-0.808,3.838-2.323,5.252c-1.515,1.412-3.534,2.119-6.16,2.119c-1.01,0-2.121-0.1-3.029-0.303
			c-1.01-0.201-1.818-0.504-2.424-0.807c-0.707-0.305-1.211-0.707-1.716-1.012c-0.505-0.303-0.909-0.605-1.111-0.908L28.336,223.479
			z"/>
		<path fill="#FFFFFF" d="M48.937,226.508V209.24h5.857v17.268H48.937z M49.038,207.018v-4.545h5.655v4.545H49.038z"/>
		<path fill="#FFFFFF" d="M57.722,224.285l2.525-3.938c0.101,0.102,0.303,0.305,0.606,0.504c0.303,0.203,0.808,0.404,1.515,0.811
			c0.808,0.303,1.515,0.504,2.222,0.504c1.111,0,1.717-0.303,1.717-0.807c0-0.305-0.303-0.508-0.808-0.811
			c-0.606-0.303-1.212-0.504-2.02-0.807c-0.808-0.305-1.616-0.707-2.323-1.111c-0.808-0.404-1.515-1.01-2.02-1.816
			c-0.606-0.809-0.808-1.719-0.808-2.729c0-1.615,0.707-2.826,2.02-3.836s3.03-1.414,5.049-1.414c0.808,0,1.515,0.1,2.222,0.201
			s1.313,0.303,1.717,0.506c0.404,0.201,0.808,0.402,1.212,0.605c0.303,0.201,0.606,0.402,0.707,0.504l0.202,0.203l-2.02,4.141
			c-0.101-0.104-0.303-0.203-0.505-0.404c-0.202-0.203-0.707-0.402-1.414-0.605c-0.707-0.303-1.414-0.404-2.121-0.404
			c-1.111,0-1.717,0.303-1.717,0.809c0,0.201,0.303,0.404,0.808,0.707c0.505,0.303,1.212,0.504,2.02,0.809
			c0.808,0.303,1.616,0.605,2.323,1.01c0.808,0.404,1.515,1.01,2.02,1.818c0.606,0.807,0.808,1.717,0.808,2.727
			c0,1.514-0.606,2.826-1.919,3.938c-1.313,1.01-3.029,1.615-5.15,1.615c-1.313,0-2.525-0.201-3.636-0.605
			c-1.111-0.404-2.02-0.809-2.524-1.313L57.722,224.285z"/>
		<path fill="#FFFFFF" d="M75.798,220.045v-6.059h-2.222v-4.545H76v-4.949h5.655v4.949h3.535v4.545h-3.635v5.352
			c0,1.514,1.01,2.221,3.13,2.221h0.808v5.051c-0.404,0.102-0.909,0.102-1.616,0.102c-0.505,0-1.01,0-1.515-0.102
			c-0.505-0.102-1.111-0.201-1.717-0.305c-0.707-0.201-1.211-0.402-1.817-0.705c-0.505-0.305-1.01-0.707-1.515-1.111
			c-0.505-0.504-0.808-1.01-1.111-1.816C75.899,221.863,75.798,221.055,75.798,220.045z"/>
		<path fill="#FFFFFF" d="M87.614,217.822c0-2.625,0.808-4.746,2.423-6.463c1.615-1.717,3.837-2.523,6.564-2.523
			c2.524,0,4.443,0.807,5.857,2.322c1.414,1.514,2.121,3.535,2.121,6.059l-0.101,1.818H93.471c0.202,1.01,0.707,1.816,1.414,2.322
			c0.707,0.506,1.616,0.809,2.625,0.809c0.707,0,1.515-0.104,2.323-0.404c0.808-0.303,1.414-0.605,1.818-0.908l0.606-0.404
			l2.121,4.039c-0.202,0.203-0.505,0.404-0.909,0.707c-0.404,0.303-1.211,0.605-2.524,1.111c-1.313,0.504-2.625,0.705-3.938,0.705
			c-2.928,0-5.251-0.908-6.968-2.727C88.32,222.469,87.614,220.246,87.614,217.822z M93.672,215.602h5.049
			c0-0.707-0.202-1.213-0.606-1.717c-0.404-0.506-1.01-0.707-1.616-0.707C94.985,213.178,94.077,213.986,93.672,215.602z"/>
		<path fill="#FFFFFF" d="M107.709,226.508V209.24h5.554v1.514l-0.101,1.111h0.101c1.313-2.021,3.029-3.029,5.15-3.029
			c2.323,0,3.938,1.01,4.847,2.928h0.101c0.505-0.807,1.212-1.514,2.222-2.02c1.01-0.605,2.121-0.809,3.333-0.809
			c1.717,0,3.029,0.506,4.039,1.516c1.01,1.01,1.515,2.625,1.515,4.947v11.211h-5.857V216.41c0-1.414-0.404-2.223-1.313-2.223
			c-1.717,0-2.727,1.109-3.231,3.23c-0.101,0.404-0.101,1.111-0.101,2.02v7.172h-5.857V216.41c0-1.414-0.404-2.223-1.313-2.223
			c-1.616,0-2.727,1.01-3.13,3.131c-0.101,0.504-0.202,1.211-0.202,2.119v7.172h-5.756L107.709,226.508L107.709,226.508z"/>
		<path fill="#FFFFFF" d="M137.197,221.256c0-1.211,0.404-2.119,1.111-2.928c0.808-0.809,1.716-1.414,2.928-1.717
			c1.212-0.305,2.222-0.605,3.231-0.707c0.909-0.102,1.818-0.201,2.727-0.201h0.202v-0.305c0-1.313-0.808-1.918-2.524-1.918
			c-0.606,0-1.313,0.102-2.121,0.402c-0.808,0.305-1.414,0.506-1.817,0.811l-0.707,0.402l-2.02-4.141
			c0.202-0.201,0.505-0.404,0.909-0.605c0.404-0.201,1.212-0.605,2.524-1.01c1.313-0.404,2.525-0.605,3.737-0.605
			c2.423,0,4.342,0.605,5.756,1.918c1.414,1.213,2.02,2.93,2.02,5.15v10.604h-5.352v-1.01l0.101-1.111h-0.101
			c0,0.102-0.101,0.203-0.202,0.305s-0.202,0.303-0.505,0.605c-0.303,0.303-0.605,0.504-0.909,0.807
			c-0.303,0.203-0.808,0.404-1.414,0.607c-0.606,0.201-1.212,0.303-1.919,0.303c-1.616,0-3.029-0.506-4.14-1.516
			C137.803,224.285,137.197,222.973,137.197,221.256z M143.054,220.953c0,0.404,0.101,0.809,0.404,1.01
			c0.303,0.303,0.707,0.404,1.212,0.404c0.707,0,1.414-0.303,2.02-1.01c0.606-0.605,0.909-1.313,0.909-2.121v-0.404h-0.505
			c-1.01,0-2.02,0.203-2.727,0.506C143.458,219.842,143.054,220.348,143.054,220.953z"/>
		<path fill="#FFFFFF" d="M165.674,226.508v-24.035h5.958l6.665,11.211c0.202,0.504,0.505,1.109,0.808,1.816
			s0.606,1.313,0.808,1.717l0.303,0.605h0.101c-0.202-1.717-0.303-3.129-0.303-4.141v-11.209h5.857v24.033h-5.756l-6.665-11.209
			c-0.303-0.504-0.606-1.01-0.909-1.717c-0.303-0.707-0.606-1.313-0.808-1.717l-0.303-0.605h-0.101
			c0.202,1.717,0.303,3.131,0.303,4.141v11.211h-5.958V226.508z"/>
		<path fill="#FFFFFF" d="M189.708,221.256c0-1.211,0.404-2.119,1.111-2.928c0.808-0.809,1.717-1.414,2.929-1.717
			c1.212-0.305,2.222-0.605,3.231-0.707c0.909-0.102,1.818-0.201,2.727-0.201h0.202v-0.305c0-1.313-0.808-1.918-2.525-1.918
			c-0.606,0-1.313,0.102-2.121,0.402c-0.808,0.305-1.414,0.506-1.817,0.811l-0.707,0.402l-2.02-4.141
			c0.202-0.201,0.505-0.404,0.909-0.605s1.212-0.605,2.524-1.01c1.313-0.404,2.525-0.605,3.736-0.605
			c2.424,0,4.342,0.605,5.756,1.918c1.414,1.213,2.02,2.93,2.02,5.15v10.604h-5.352v-1.01l0.101-1.111h-0.101
			c0,0.102-0.101,0.203-0.202,0.305s-0.202,0.303-0.505,0.605c-0.303,0.303-0.606,0.504-0.909,0.807
			c-0.303,0.203-0.808,0.404-1.414,0.607c-0.606,0.201-1.212,0.303-1.919,0.303c-1.616,0-3.029-0.506-4.14-1.516
			C190.213,224.285,189.708,222.973,189.708,221.256z M195.464,220.953c0,0.404,0.101,0.809,0.404,1.01
			c0.303,0.303,0.707,0.404,1.212,0.404c0.707,0,1.414-0.303,2.02-1.01c0.606-0.605,0.909-1.313,0.909-2.121v-0.404h-0.505
			c-1.01,0-2.02,0.203-2.727,0.506C195.868,219.842,195.464,220.348,195.464,220.953z"/>
		<path fill="#FFFFFF" d="M208.491,217.822c0-2.424,0.909-4.543,2.625-6.361c1.717-1.818,4.04-2.625,7.069-2.625
			c0.909,0,1.717,0.1,2.525,0.303c0.808,0.201,1.414,0.404,1.918,0.605c0.505,0.303,1.01,0.506,1.313,0.809
			c0.404,0.303,0.606,0.504,0.808,0.605l0.303,0.303l-2.424,3.939c-0.101-0.102-0.303-0.305-0.505-0.506s-0.707-0.402-1.414-0.707
			c-0.707-0.303-1.414-0.504-2.121-0.504c-1.313,0-2.323,0.402-3.03,1.211s-1.111,1.818-1.111,2.93c0,1.109,0.404,2.121,1.111,3.027
			c0.808,0.91,1.818,1.314,3.231,1.314c0.707,0,1.515-0.203,2.222-0.506c0.808-0.303,1.414-0.707,1.818-1.01l0.606-0.506
			l2.121,4.039c-0.101,0.102-0.202,0.203-0.303,0.305s-0.404,0.402-0.909,0.707c-0.505,0.303-1.01,0.605-1.515,0.908
			s-1.212,0.506-2.121,0.707c-0.808,0.201-1.717,0.303-2.626,0.303c-2.928,0-5.251-0.908-7.069-2.625
			C209.4,222.469,208.491,220.348,208.491,217.822z"/>
		<path fill="#FFFFFF" d="M228.284,226.508V209.24h5.857v17.268H228.284z M228.385,207.018v-4.545h5.655v4.545H228.385z"/>
		<path fill="#FFFFFF" d="M239.897,224.387c-1.918-1.717-2.827-3.838-2.827-6.463s0.909-4.848,2.827-6.563
			c1.919-1.719,4.242-2.525,6.968-2.525c2.726,0,5.15,0.809,6.968,2.525c1.918,1.717,2.828,3.838,2.828,6.563
			c0,2.625-0.909,4.848-2.828,6.463c-1.919,1.717-4.241,2.525-6.968,2.525C244.138,226.912,241.816,226.002,239.897,224.387z
			 M243.028,217.924c0,1.213,0.404,2.223,1.111,3.029c0.808,0.809,1.717,1.109,2.827,1.109c1.111,0,2.02-0.402,2.828-1.109
			c0.808-0.809,1.111-1.816,1.111-3.029c0-1.313-0.404-2.322-1.111-3.131c-0.808-0.807-1.717-1.211-2.828-1.211
			c-1.11,0-2.02,0.404-2.827,1.211C243.331,215.602,243.028,216.611,243.028,217.924z"/>
		<path fill="#FFFFFF" d="M259.791,226.508V209.24h5.554v1.514l-0.101,1.111h0.101c1.212-2.021,3.029-3.029,5.554-3.029
			c4.141,0,6.262,2.121,6.262,6.463v11.209h-5.857V216.41c0-1.518-0.605-2.324-1.918-2.324c-1.716,0-2.827,0.809-3.433,2.525
			c-0.202,0.605-0.303,1.414-0.303,2.322v7.676h-5.857L259.791,226.508L259.791,226.508z"/>
		<path fill="#FFFFFF" d="M279.785,221.256c0-1.211,0.404-2.119,1.111-2.928c0.809-0.809,1.717-1.414,2.929-1.717
			c1.212-0.305,2.222-0.605,3.231-0.707c0.907-0.102,1.817-0.201,2.727-0.201h0.201v-0.305c0-1.313-0.808-1.918-2.523-1.918
			c-0.605,0-1.313,0.102-2.121,0.402c-0.809,0.305-1.414,0.506-1.816,0.811l-0.707,0.402l-2.021-4.141
			c0.202-0.201,0.505-0.404,0.909-0.605c0.402-0.201,1.211-0.605,2.523-1.01s2.524-0.605,3.735-0.605
			c2.425,0,4.343,0.605,5.757,1.918c1.413,1.213,2.02,2.93,2.02,5.15v10.604h-5.353v-1.01l0.103-1.111h-0.103
			c0,0.102-0.101,0.203-0.2,0.305c-0.103,0.102-0.203,0.303-0.506,0.605c-0.304,0.303-0.605,0.504-0.908,0.807
			c-0.304,0.203-0.809,0.404-1.414,0.607c-0.605,0.201-1.211,0.303-1.918,0.303c-1.616,0-3.029-0.506-4.142-1.516
			C280.393,224.285,279.785,222.973,279.785,221.256z M285.643,220.953c0,0.404,0.103,0.809,0.404,1.01
			c0.303,0.303,0.707,0.404,1.212,0.404c0.706,0,1.413-0.303,2.021-1.01c0.605-0.605,0.908-1.313,0.908-2.121v-0.404h-0.506
			c-1.01,0-2.02,0.203-2.727,0.506C286.047,219.842,285.643,220.348,285.643,220.953z"/>
		<path fill="#FFFFFF" d="M299.68,220.045v-17.672h5.857v16.863c0,0.809,0.101,1.414,0.303,1.717s0.605,0.506,1.313,0.506h0.707
			v5.049c-0.505,0.102-1.111,0.102-1.718,0.102c-0.908,0-1.717-0.102-2.321-0.201c-0.708-0.104-1.313-0.404-2.021-0.809
			s-1.213-1.111-1.516-2.021C299.882,222.67,299.68,221.459,299.68,220.045z"/>
		<path fill="#FFFFFF" d="M326.34,209.037c3.938,0,5.251,2.727,5.251,2.727h0.102c0,0-0.102-0.504-0.102-1.109v-7.877h3.231v23.73
			h-3.131v-1.615c0-0.707,0-1.111,0-1.111h-0.102c0,0-1.414,3.131-5.555,3.131c-4.646,0-7.474-3.635-7.474-8.887
			C318.665,212.572,321.896,209.037,326.34,209.037z M326.845,224.084c2.524,0,4.947-1.818,4.947-6.16
			c0-3.029-1.615-6.059-4.847-6.059c-2.728,0-4.948,2.221-4.948,6.059C321.997,221.66,324.017,224.084,326.845,224.084z"/>
		<path fill="#FFFFFF" d="M347.344,209.037c4.849,0,7.372,3.535,7.372,7.979c0,0.404-0.101,1.414-0.101,1.414h-12.422
			c0.201,3.736,2.828,5.654,5.856,5.654c2.929,0,5.049-2.021,5.049-2.021l1.313,2.426c0,0-2.524,2.424-6.564,2.424
			c-5.352,0-8.986-3.838-8.986-8.887C338.761,212.572,342.497,209.037,347.344,209.037z M351.282,216.006
			c-0.102-2.93-1.919-4.344-4.142-4.344c-2.523,0-4.544,1.516-4.947,4.344H351.282z"/>
		<path fill="#FFFFFF" d="M378.346,202.373c5.757,0,8.584,3.131,8.584,3.131l-1.615,2.523c0,0-2.728-2.625-6.866-2.625
			c-5.354,0-8.786,4.039-8.786,9.088s3.535,9.393,8.786,9.393c4.442,0,7.271-3.131,7.271-3.131l1.817,2.424
			c0,0-3.231,3.736-9.189,3.736c-7.17,0-12.118-5.453-12.118-12.422C366.329,207.623,371.48,202.373,378.346,202.373z"/>
		<path fill="#FFFFFF" d="M391.271,209.441h3.232v10.098c0,2.324,0.505,4.242,3.231,4.242c3.433,0,5.554-3.029,5.554-6.463v-7.979
			h3.23v16.965h-3.23v-2.221c0-0.707,0.101-1.213,0.101-1.213h-0.101c-0.707,1.717-2.929,3.938-6.261,3.938
			c-3.839,0-5.857-2.02-5.857-6.563v-10.805H391.271z"/>
		<path fill="#FFFFFF" d="M411.569,202.777h3.333v3.332h-3.333V202.777z M411.569,209.441h3.23v16.965h-3.23V209.441z"/>
		<path fill="#FFFFFF" d="M426.516,209.037c3.938,0,5.251,2.727,5.251,2.727h0.102c0,0-0.102-0.504-0.102-1.109v-7.877h3.231v23.73
			h-3.131v-1.615c0-0.707,0-1.111,0-1.111h-0.102c0,0-1.414,3.131-5.554,3.131c-4.646,0-7.474-3.635-7.474-8.887
			C418.841,212.572,421.971,209.037,426.516,209.037z M426.919,224.084c2.524,0,4.948-1.818,4.948-6.16
			c0-3.029-1.615-6.059-4.848-6.059c-2.727,0-4.947,2.221-4.947,6.059C422.173,221.66,424.092,224.084,426.919,224.084z"/>
		<path fill="#FFFFFF" d="M448.934,215.904h0.707V215.6c0-2.826-1.614-3.734-3.735-3.734c-2.626,0-4.746,1.615-4.746,1.615
			l-1.313-2.424c0,0,2.423-2.02,6.361-2.02c4.343,0,6.766,2.322,6.766,6.664v10.705h-3.028v-1.516c0-0.809,0.102-1.313,0.102-1.313
			h-0.102c0,0-1.413,3.332-5.453,3.332c-2.929,0-5.756-1.816-5.756-5.15C438.734,216.105,446.106,215.904,448.934,215.904z
			 M445.197,224.285c2.727,0,4.544-2.928,4.544-5.453v-0.504h-0.808c-2.424,0-6.866,0.201-6.866,3.23
			C442.066,222.873,443.076,224.285,445.197,224.285z"/>
		<path fill="#FFFFFF" d="M464.385,209.037c3.938,0,5.251,2.727,5.251,2.727h0.102c0,0-0.102-0.504-0.102-1.109v-7.877h3.231v23.73
			h-3.131v-1.615c0-0.707,0-1.111,0-1.111h-0.102c0,0-1.414,3.131-5.555,3.131c-4.646,0-7.473-3.635-7.473-8.887
			C456.71,212.572,459.941,209.037,464.385,209.037z M464.89,224.084c2.524,0,4.948-1.818,4.948-6.16
			c0-3.029-1.616-6.059-4.848-6.059c-2.728,0-4.948,2.221-4.948,6.059C460.042,221.66,462.062,224.084,464.89,224.084z"/>
		<path fill="#FFFFFF" d="M485.995,209.037c5.049,0,9.188,3.736,9.188,8.887c0,5.152-4.141,8.887-9.188,8.887
			c-5.05,0-9.189-3.734-9.189-8.887C476.806,212.773,480.845,209.037,485.995,209.037z M485.995,224.084
			c3.23,0,5.855-2.525,5.855-6.16c0-3.535-2.625-6.059-5.855-6.059c-3.231,0-5.857,2.523-5.857,6.059
			S482.764,224.084,485.995,224.084z"/>
		<path fill="#FFFFFF" d="M499.224,222.063c0,0,1.919,2.021,4.849,2.021c1.413,0,2.827-0.707,2.827-2.121
			c0-3.131-8.686-2.523-8.686-7.977c0-3.133,2.728-4.85,6.16-4.85c3.736,0,5.453,1.92,5.453,1.92l-1.313,2.424
			c0,0-1.516-1.516-4.242-1.516c-1.412,0-2.826,0.605-2.826,2.121c0,3.029,8.685,2.424,8.685,7.977c0,2.828-2.424,4.949-6.16,4.949
			c-4.14,0-6.463-2.523-6.463-2.523L499.224,222.063z"/>
	</g>
</g>
</svg>
