<?xml version="1.0" encoding="utf-8"?>
<!-- Generator: Adobe Illustrator 16.0.0, SVG Export Plug-In . SVG Version: 6.00 Build 0)  -->
<!DOCTYPE svg PUBLIC "-//W3C//DTD SVG 1.1//EN" "http://www.w3.org/Graphics/SVG/1.1/DTD/svg11.dtd">
<svg version="1.1" id="Capa_1" xmlns="http://www.w3.org/2000/svg" xmlns:xlink="http://www.w3.org/1999/xlink" x="0px" y="0px"
	 width="544px" height="243px" viewBox="0 280.5 544 243" enable-background="new 0 280.5 544 243" xml:space="preserve">
<g>
	<g>
		<g>
			<path fill="#FFFFFF" d="M218.327,422.469c0-11.613,3.938-21.308,11.916-29.184c7.877-7.776,17.874-11.714,29.79-11.714
				c3.737,0,7.271,0.404,10.604,1.212c3.332,0.808,6.16,1.717,8.382,2.828s4.14,2.222,5.856,3.231
				c1.717,1.111,2.929,2.02,3.736,2.828l1.111,1.111l-8.987,14.642c-0.707-0.605-1.616-1.313-2.728-2.221
				c-1.211-0.909-3.533-2.121-6.967-3.636c-3.433-1.515-6.867-2.323-10.098-2.323c-7.17,0-12.724,2.222-16.562,6.665
				s-5.857,9.796-5.857,15.956c0,6.361,2.02,11.916,5.958,16.662c4.04,4.746,9.493,7.17,16.46,7.17
				c3.534,0,7.069-0.808,10.603-2.424c3.535-1.615,6.16-3.231,7.876-4.847l2.626-2.424l9.997,14.238
				c-0.303,0.404-0.707,0.808-1.313,1.414c-0.605,0.605-1.918,1.615-3.938,3.131c-2.02,1.515-4.241,2.827-6.463,4.039
				c-2.322,1.212-5.251,2.222-8.987,3.231c-3.636,1.01-7.372,1.414-11.311,1.414c-12.32,0-22.317-3.838-29.992-11.613
				C222.165,444.281,218.327,434.486,218.327,422.469z"/>
			<path fill="#FFFFFF" d="M297.902,442.262v-37.061h19.187v33.526c0,5.049,2.021,7.573,6.06,7.573c3.938,0,6.968-1.515,8.987-4.544
				c2.121-3.029,3.131-6.766,3.131-11.311V405.1h19.187v57.157h-18.479v-4.848l0.201-3.534h-0.201
				c-1.515,3.029-3.938,5.453-7.17,7.17c-3.231,1.817-6.767,2.625-10.704,2.625c-6.262,0-11.108-1.717-14.846-5.049
				C299.721,455.289,297.902,449.836,297.902,442.262z"/>
			<path fill="#FFFFFF" d="M365.966,462.357v-57.156h19.187v57.156H365.966z M366.167,397.93v-14.945h18.783v14.945H366.167z"/>
			<path fill="#FFFFFF" d="M399.795,455.39c-4.746-5.554-7.068-12.724-7.068-21.712c0-8.987,2.423-16.157,7.271-21.61
				c4.847-5.453,11.108-8.18,18.783-8.18c3.434,0,6.361,0.404,8.887,1.212c2.524,0.808,4.14,1.515,4.847,2.322l1.212,1.111h0.202
				c-0.102-0.707-0.102-1.616-0.102-2.524v-22.924h19.188v79.374h-17.976v-3.737l0.102-3.231h-0.202
				c-0.101,0.202-0.303,0.505-0.605,0.909c-0.304,0.404-0.909,1.01-1.818,2.02c-1.01,1.01-2.02,1.818-3.13,2.524
				c-1.111,0.707-2.728,1.414-4.646,2.021c-1.919,0.605-4.04,0.908-6.262,0.908C410.701,463.67,404.44,460.943,399.795,455.39z
				 M415.245,423.781c-2.12,2.424-3.231,5.757-3.231,9.998s1.01,7.675,3.131,10.199c2.121,2.626,4.746,3.837,8.079,3.837
				c3.231,0,5.856-1.211,7.978-3.534c2.12-2.322,3.231-5.856,3.231-10.502c0-3.736-1.01-6.867-2.929-9.594s-4.746-4.039-8.28-4.039
				C420.093,420.045,417.467,421.257,415.245,423.781z"/>
			<path fill="#FFFFFF" d="M460.284,445.291c0-3.837,1.212-7.17,3.736-9.795c2.524-2.727,5.757-4.646,9.694-5.756
				c3.938-1.111,7.474-1.919,10.604-2.323c3.131-0.403,6.16-0.605,9.089-0.605h0.808v-1.01c0-4.241-2.827-6.362-8.482-6.362
				c-2.121,0-4.544,0.505-7.069,1.414c-2.524,0.908-4.645,1.817-6.159,2.727l-2.223,1.313l-6.664-13.532
				c0.706-0.605,1.817-1.313,3.13-2.12c1.414-0.809,4.141-1.919,8.281-3.231c4.14-1.414,8.382-2.02,12.521-2.02
				c8.079,0,14.34,2.12,18.884,6.261c4.545,4.141,6.867,9.795,6.867,17.066v35.243h-17.571v-3.434l0.202-3.534h-0.202
				c-0.101,0.202-0.303,0.505-0.505,0.908c-0.202,0.404-0.808,1.011-1.717,2.021c-0.908,1.01-1.918,1.817-3.029,2.524
				c-1.11,0.707-2.626,1.414-4.646,2.02c-1.918,0.605-4.039,0.909-6.261,0.909c-5.453,0-10.099-1.717-13.835-5.05
				C462.103,455.289,460.284,450.846,460.284,445.291z M479.572,444.281c0,1.414,0.505,2.524,1.414,3.434
				c0.908,0.909,2.322,1.313,4.039,1.313c2.424,0,4.646-1.11,6.564-3.231c1.918-2.12,2.928-4.443,2.928-6.866v-1.212H492.7
				c-3.434,0-6.563,0.505-9.189,1.615C480.885,440.444,479.572,442.06,479.572,444.281z"/>
		</g>
		<g>
			<path fill="#FFFFFF" d="M249.329,306.54c14.542,0,22.015,7.978,22.015,7.978l-4.242,6.362c0,0-7.069-6.563-17.47-6.563
				c-13.532,0-22.418,10.3-22.418,23.125c0,12.926,8.987,23.933,22.418,23.933c11.411,0,18.682-7.876,18.682-7.876l4.544,6.059
				c0,0-8.281,9.593-23.529,9.593c-18.177,0-31.002-13.936-31.002-31.608C218.529,319.97,231.758,306.54,249.329,306.54z"/>
			<path fill="#FFFFFF" d="M280.735,307.65h8.28v22.216c0,2.02-0.201,3.635-0.201,3.635h0.201c1.919-4.241,7.372-9.694,16.057-9.694
				c10.199,0,14.945,5.554,14.945,16.663v27.771h-8.28v-25.953c0-6.059-1.313-10.906-8.28-10.906
				c-6.564,0-11.916,4.443-13.734,10.705c-0.505,1.717-0.707,3.736-0.707,5.756v20.298h-8.28V307.65z"/>
			<path fill="#FFFFFF" d="M330.217,307.65h8.382v8.482h-8.382V307.65z M330.217,324.717h8.281v43.423h-8.281V324.717z"/>
			<path fill="#FFFFFF" d="M349,307.65h8.281v47.26c0,5.251,2.02,6.16,4.645,6.16c0.809,0,1.414-0.101,1.414-0.101v7.372
				c0,0-1.313,0.202-2.727,0.202c-4.746,0-11.613-1.313-11.613-12.219V307.65z"/>
			<path fill="#FFFFFF" d="M388.788,323.707c12.219,0,18.782,9.089,18.782,20.298c0,1.111-0.303,3.635-0.303,3.635H375.66
				c0.403,9.493,7.17,14.34,14.945,14.34c7.473,0,12.825-5.049,12.825-5.049l3.434,6.059c0,0-6.463,6.16-16.764,6.16
				c-13.633,0-23.024-9.896-23.024-22.721C367.076,332.593,376.367,323.707,388.788,323.707z M398.987,341.379
				c-0.303-7.473-4.848-11.108-10.503-11.108c-6.361,0-11.512,3.938-12.724,11.108H398.987z"/>
		</g>
	</g>
	<g>
		<path fill="#FFFFFF" d="M109.466,360.566l8.281,11.512c0.505,0.707,1.414,1.01,2.222,0.707l13.431-4.241
			c1.818-0.606,3.333,1.515,2.222,3.13l-8.381,11.411c-0.505,0.707-0.505,1.616,0,2.323l8.281,11.512
			c1.111,1.616-0.404,3.636-2.222,3.029l-13.431-4.443c-0.808-0.303-1.717,0-2.222,0.707l-8.381,11.411
			c-1.111,1.616-3.636,0.707-3.636-1.212l0.101-14.137c0-0.909-0.505-1.616-1.414-1.919l-13.431-4.443
			c-1.817-0.606-1.817-3.231,0-3.837l13.431-4.241c0.808-0.303,1.414-1.01,1.414-1.918l0.101-14.138
			C105.831,359.859,108.355,359.051,109.466,360.566z"/>
		<g>
			<path fill="#FFFFFF" d="M39.485,350.771c7.775,5.756,18.682,4.14,24.438-3.535c5.756-7.776,4.14-18.682-3.535-24.438
				c-7.775-5.756-18.682-4.14-24.438,3.535C30.093,334.007,31.709,345.014,39.485,350.771z"/>
			<path fill="#FFFFFF" d="M134.712,325.121c9.088,3.13,19.086-1.818,22.116-10.906c3.13-9.089-1.818-19.086-10.906-22.116
				c-9.089-3.13-19.086,1.818-22.116,10.906C120.676,312.094,125.523,321.99,134.712,325.121z"/>
			<path fill="#FFFFFF" d="M63.014,421.257c-5.554-7.876-16.46-9.694-24.337-4.14c-7.876,5.554-9.694,16.46-4.14,24.337
				s16.46,9.694,24.337,4.14C66.75,440.04,68.568,429.134,63.014,421.257z"/>
			<path fill="#FFFFFF" d="M133.198,444.988c-9.189,2.827-14.34,12.623-11.512,21.913c2.828,9.19,12.623,14.34,21.914,11.513
				c9.189-2.828,14.34-12.623,11.512-21.914C152.183,447.311,142.387,442.161,133.198,444.988z"/>
			<path fill="#FFFFFF" d="M177.53,385.61c-0.101,9.694,7.574,17.571,17.268,17.672c9.694,0.101,17.571-7.574,17.672-17.269
				c0.101-9.694-7.574-17.571-17.269-17.672C185.507,368.241,177.63,375.916,177.53,385.61z"/>
			<g>
				<path fill="#FFFFFF" d="M155.919,355.517c-9.896,0.606-20.197-0.606-30.194-4.04c-9.998-3.433-18.884-8.583-26.357-15.147
					c-2.524,9.694-6.867,18.985-13.128,27.468c-6.261,8.482-14.037,15.249-22.52,20.399c8.382,5.352,15.956,12.319,22.015,21.005
					c6.059,8.583,10.199,18.075,12.421,27.771c7.675-6.362,16.663-11.311,26.761-14.441c10.099-3.13,20.298-4.14,30.295-3.231
					c-3.636-9.29-5.655-19.389-5.554-29.891C149.759,374.704,151.98,364.706,155.919,355.517z"/>
				<path fill="#FFFFFF" d="M63.721,384.196c8.583-5.15,16.258-11.917,22.52-20.399c6.261-8.483,10.604-17.773,13.128-27.468
					c-3.03-2.625-5.857-5.554-8.483-8.583c-4.948-5.756-8.987-12.32-12.017-19.187c-0.101,0.101-0.202,0.101-0.303,0.202
					c1.212,8.381,0.505,16.965-2.121,25.246c-1.818,5.655-4.646,11.209-8.382,16.259c-3.736,5.049-8.281,9.291-13.128,12.623
					c-7.069,4.847-15.046,7.978-23.327,9.29c0,0.101,0,0.303-0.101,0.404c7.372,1.01,14.643,2.928,21.51,5.958
					C56.753,380.157,60.288,382.075,63.721,384.196z"/>
				<path fill="#FFFFFF" d="M101.489,324.515c-0.404,3.938-1.111,7.978-2.121,11.815c7.473,6.564,16.359,11.714,26.357,15.148
					c9.997,3.433,20.197,4.645,30.194,4.039c1.616-3.736,3.434-7.271,5.554-10.704c4.04-6.463,8.988-12.421,14.643-17.47
					c0.909,0.909,1.818,1.817,2.727,2.727c-0.909-1.01-1.817-2.121-2.828-3.131c-7.675,3.837-16.258,5.857-25.044,5.958
					c-5.958,0-12.017-0.909-17.975-2.929s-11.411-4.948-16.157-8.583c-6.867-5.251-12.32-12.017-16.158-19.591
					c-0.101,0-0.202,0-0.404,0.101C101.893,309.266,102.196,316.941,101.489,324.515z"/>
				<path fill="#FFFFFF" d="M99.368,336.33c1.01-3.938,1.717-7.876,2.121-11.815c0.707-7.574,0.404-15.249-1.01-22.722
					c-7.574,1.313-14.845,3.636-21.51,6.766c3.03,6.867,7.069,13.431,12.017,19.187C93.511,330.876,96.338,333.704,99.368,336.33z"
					/>
				<path fill="#FFFFFF" d="M98.156,432.972c-2.222-9.695-6.362-19.188-12.421-27.771c-6.059-8.584-13.633-15.653-22.015-21.005
					c-3.434-2.121-6.968-4.04-10.603-5.655c-6.867-3.03-14.138-5.049-21.51-5.958c-0.505,3.736-0.808,7.574-0.909,11.512
					c0,3.837,0.202,7.675,0.707,11.411c8.18,1.515,16.158,4.747,23.024,9.795c4.847,3.534,9.189,7.877,12.825,13.026
					c3.635,5.15,6.261,10.705,7.978,16.461c2.424,8.28,2.929,16.864,1.616,25.145c0.101,0.102,0.202,0.102,0.404,0.202
					c3.231-6.766,7.372-13.128,12.421-18.783C92.198,438.323,95.026,435.496,98.156,432.972z"/>
				<path fill="#FFFFFF" d="M115.324,448.32c4.847-3.534,10.3-6.361,16.359-8.18c6.059-1.918,12.118-2.625,18.076-2.524
					c8.786,0.202,17.167,2.524,24.741,6.463c0.606-0.605,1.313-1.313,1.919-1.918c-0.606,0.605-1.212,1.11-1.818,1.615
					c-5.554-5.251-10.3-11.209-14.239-17.773c-2.02-3.433-3.736-7.068-5.251-10.805c-9.896-0.909-20.197,0.101-30.295,3.231
					c-10.098,3.131-19.086,8.18-26.761,14.44c-3.13,2.626-6.059,5.353-8.685,8.382c-5.049,5.655-9.189,12.017-12.421,18.783
					c6.766,3.434,14.037,5.958,21.711,7.371C102.802,460.035,108.355,453.471,115.324,448.32z"/>
				<path fill="#FFFFFF" d="M176.116,327.342c-5.655,5.049-10.603,10.906-14.643,17.47c-2.121,3.433-3.938,6.968-5.554,10.704
					c-3.938,9.189-6.16,19.187-6.261,29.79c-0.101,10.604,1.817,20.702,5.554,29.892c1.515,3.736,3.231,7.372,5.251,10.805
					c3.837,6.564,8.685,12.623,14.239,17.773c0.606-0.505,1.212-1.11,1.817-1.615c4.646-5.05,8.685-10.604,12.017-16.562
					c-6.059-6.16-10.603-13.633-13.33-22.015c-1.818-5.655-2.828-11.714-2.727-18.076c0.101-6.261,1.212-12.32,3.231-17.975
					c2.929-8.281,7.776-15.652,13.936-21.711c-2.928-5.655-6.564-11.007-10.704-15.753
					C177.934,329.16,177.025,328.251,176.116,327.342z"/>
				<path fill="#FFFFFF" d="M155.818,355.517c4.141-0.202,8.18-0.808,12.118-1.616c7.574-1.616,14.845-4.342,21.611-7.978
					c-3.636-6.968-8.382-13.33-13.532-18.884c-5.756,5.049-10.502,11.108-14.542,17.672
					C159.353,348.145,157.434,351.78,155.818,355.517z"/>
			</g>
		</g>
	</g>
</g>
<g>
	<path fill="#FFFFFF" d="M31.002,505.478l3.13-4.443c0.202,0.202,0.505,0.404,0.808,0.707c0.404,0.303,1.01,0.606,2.02,1.11
		c1.01,0.506,1.919,0.707,2.828,0.707c0.707,0,1.313-0.101,1.818-0.403c0.505-0.304,0.707-0.808,0.707-1.414
		c0-0.404-0.303-0.808-0.808-1.212c-0.505-0.403-1.212-0.707-2.02-1.01c-0.808-0.303-1.616-0.707-2.626-1.11
		c-0.909-0.505-1.817-0.909-2.625-1.515c-0.808-0.506-1.414-1.212-2.02-2.121c-0.505-0.909-0.808-1.919-0.808-3.131
		c0-2.222,0.808-3.938,2.424-5.352c1.616-1.414,3.635-2.02,6.059-2.02c1.515,0,2.929,0.201,4.241,0.706
		c1.313,0.505,2.222,0.909,2.727,1.313l0.808,0.707l-2.525,4.847c-0.202-0.202-0.404-0.303-0.707-0.605
		c-0.303-0.202-0.909-0.505-1.919-0.909c-0.909-0.404-1.818-0.605-2.625-0.605c-0.707,0-1.313,0.101-1.818,0.403
		s-0.707,0.707-0.707,1.313c0,0.505,0.404,1.011,1.11,1.414c0.808,0.404,1.717,0.808,2.727,1.212
		c1.111,0.404,2.121,0.909,3.131,1.414s1.918,1.313,2.625,2.424c0.707,1.11,1.111,2.322,1.111,3.736c0,2.12-0.808,3.837-2.323,5.251
		c-1.515,1.413-3.534,2.12-6.16,2.12c-1.01,0-2.121-0.101-3.029-0.303c-1.01-0.202-1.818-0.505-2.424-0.808
		c-0.707-0.303-1.211-0.707-1.716-1.01s-0.909-0.606-1.111-0.909L31.002,505.478z"/>
	<path fill="#FFFFFF" d="M51.603,508.507v-17.268h5.857v17.268H51.603z M51.704,489.018v-4.545h5.655v4.545H51.704z"/>
	<path fill="#FFFFFF" d="M60.388,506.285l2.525-3.938c0.101,0.102,0.303,0.304,0.606,0.505c0.303,0.202,0.808,0.404,1.515,0.809
		c0.808,0.303,1.515,0.505,2.222,0.505c1.111,0,1.717-0.303,1.717-0.808c0-0.304-0.303-0.506-0.808-0.809
		c-0.606-0.303-1.212-0.505-2.02-0.808c-0.808-0.303-1.616-0.707-2.323-1.11c-0.808-0.404-1.515-1.011-2.02-1.818
		c-0.606-0.808-0.808-1.717-0.808-2.727c0-1.615,0.707-2.827,2.02-3.837c1.313-1.01,3.03-1.414,5.049-1.414
		c0.808,0,1.515,0.101,2.222,0.202c0.707,0.101,1.313,0.303,1.717,0.505s0.808,0.403,1.212,0.605
		c0.303,0.202,0.606,0.404,0.707,0.505l0.202,0.202l-2.02,4.141c-0.101-0.102-0.303-0.202-0.505-0.404
		c-0.202-0.202-0.707-0.403-1.414-0.605c-0.707-0.303-1.414-0.404-2.121-0.404c-1.111,0-1.717,0.303-1.717,0.808
		c0,0.202,0.303,0.404,0.808,0.707s1.212,0.505,2.02,0.809c0.808,0.303,1.616,0.605,2.323,1.01c0.808,0.403,1.515,1.01,2.02,1.817
		c0.606,0.808,0.808,1.717,0.808,2.727c0,1.515-0.606,2.827-1.919,3.938c-1.313,1.01-3.029,1.615-5.15,1.615
		c-1.313,0-2.525-0.201-3.636-0.605s-2.02-0.808-2.524-1.313L60.388,506.285z"/>
	<path fill="#FFFFFF" d="M78.464,502.044v-6.059h-2.222v-4.545h2.424v-4.948h5.655v4.948h3.535v4.545h-3.635v5.352
		c0,1.515,1.01,2.222,3.13,2.222h0.808v5.05c-0.404,0.101-0.909,0.101-1.616,0.101c-0.505,0-1.01,0-1.515-0.101
		c-0.505-0.102-1.111-0.202-1.717-0.304c-0.707-0.201-1.211-0.403-1.817-0.706c-0.505-0.304-1.01-0.707-1.515-1.111
		c-0.505-0.505-0.808-1.01-1.111-1.817C78.565,503.862,78.464,503.054,78.464,502.044z"/>
	<path fill="#FFFFFF" d="M90.28,499.822c0-2.625,0.808-4.746,2.423-6.463s3.837-2.524,6.564-2.524c2.524,0,4.443,0.808,5.857,2.322
		c1.414,1.515,2.121,3.535,2.121,6.06l-0.101,1.817H96.137c0.202,1.01,0.707,1.817,1.414,2.323c0.707,0.505,1.616,0.808,2.625,0.808
		c0.707,0,1.515-0.102,2.323-0.404c0.808-0.303,1.414-0.605,1.818-0.908l0.606-0.404l2.121,4.039
		c-0.202,0.202-0.505,0.404-0.909,0.707c-0.404,0.303-1.211,0.606-2.524,1.111c-1.313,0.505-2.625,0.706-3.938,0.706
		c-2.928,0-5.251-0.908-6.968-2.727C90.986,504.468,90.28,502.246,90.28,499.822z M96.338,497.601h5.049
		c0-0.707-0.202-1.212-0.606-1.717c-0.404-0.505-1.01-0.706-1.616-0.706C97.651,495.178,96.743,495.985,96.338,497.601z"/>
	<path fill="#FFFFFF" d="M110.375,508.507v-17.268h5.554v1.515l-0.101,1.11h0.101c1.313-2.02,3.029-3.029,5.15-3.029
		c2.323,0,3.938,1.01,4.847,2.929h0.101c0.505-0.808,1.212-1.515,2.222-2.02c1.01-0.606,2.121-0.809,3.333-0.809
		c1.717,0,3.029,0.505,4.039,1.516c1.01,1.01,1.515,2.625,1.515,4.947v11.21h-5.857v-10.199c0-1.414-0.404-2.222-1.313-2.222
		c-1.717,0-2.727,1.11-3.231,3.231c-0.101,0.403-0.101,1.11-0.101,2.02v7.17h-5.857v-10.199c0-1.414-0.404-2.222-1.313-2.222
		c-1.616,0-2.727,1.01-3.13,3.13c-0.101,0.505-0.202,1.212-0.202,2.121v7.17h-5.756V508.507z"/>
	<path fill="#FFFFFF" d="M139.863,503.256c0-1.212,0.404-2.12,1.111-2.929c0.808-0.808,1.716-1.413,2.928-1.717
		c1.212-0.303,2.222-0.605,3.231-0.706c0.909-0.102,1.818-0.202,2.727-0.202h0.202v-0.304c0-1.313-0.808-1.918-2.524-1.918
		c-0.606,0-1.313,0.101-2.121,0.403c-0.808,0.304-1.414,0.505-1.817,0.809l-0.707,0.403l-2.02-4.14
		c0.202-0.202,0.505-0.404,0.909-0.606s1.212-0.605,2.524-1.01c1.313-0.404,2.525-0.605,3.737-0.605
		c2.423,0,4.342,0.605,5.756,1.918c1.414,1.212,2.02,2.929,2.02,5.15v10.604h-5.352v-1.01l0.101-1.111h-0.101
		c0,0.102-0.101,0.202-0.202,0.304c-0.101,0.101-0.202,0.303-0.505,0.605c-0.303,0.303-0.605,0.505-0.909,0.808
		c-0.303,0.202-0.808,0.404-1.414,0.606s-1.212,0.303-1.919,0.303c-1.616,0-3.029-0.505-4.14-1.515
		C140.469,506.285,139.863,504.973,139.863,503.256z M145.72,502.953c0,0.404,0.101,0.808,0.404,1.01
		c0.303,0.303,0.707,0.404,1.212,0.404c0.707,0,1.414-0.304,2.02-1.01c0.606-0.606,0.909-1.313,0.909-2.121v-0.404h-0.505
		c-1.01,0-2.02,0.202-2.727,0.505C146.124,501.842,145.72,502.347,145.72,502.953z"/>
	<path fill="#FFFFFF" d="M168.34,508.507v-24.034h5.958l6.665,11.21c0.202,0.505,0.505,1.11,0.808,1.817
		c0.303,0.707,0.606,1.313,0.808,1.717l0.303,0.605h0.101c-0.202-1.717-0.303-3.13-0.303-4.14v-11.21h5.857v24.034h-5.756
		l-6.665-11.209c-0.303-0.505-0.606-1.01-0.909-1.717c-0.303-0.707-0.606-1.313-0.808-1.717l-0.303-0.605h-0.101
		c0.202,1.717,0.303,3.13,0.303,4.14v11.21h-5.958V508.507z"/>
	<path fill="#FFFFFF" d="M192.374,503.256c0-1.212,0.404-2.12,1.111-2.929c0.808-0.808,1.717-1.413,2.929-1.717
		c1.212-0.303,2.222-0.605,3.231-0.706c0.909-0.102,1.818-0.202,2.727-0.202h0.202v-0.304c0-1.313-0.808-1.918-2.525-1.918
		c-0.606,0-1.313,0.101-2.121,0.403c-0.808,0.304-1.414,0.505-1.817,0.809l-0.707,0.403l-2.02-4.14
		c0.202-0.202,0.505-0.404,0.909-0.606s1.212-0.605,2.524-1.01c1.313-0.404,2.525-0.605,3.736-0.605
		c2.424,0,4.342,0.605,5.756,1.918c1.414,1.212,2.02,2.929,2.02,5.15v10.604h-5.352v-1.01l0.101-1.111h-0.101
		c0,0.102-0.101,0.202-0.202,0.304c-0.101,0.101-0.202,0.303-0.505,0.605c-0.303,0.303-0.606,0.505-0.909,0.808
		c-0.303,0.202-0.808,0.404-1.414,0.606c-0.606,0.202-1.212,0.303-1.919,0.303c-1.616,0-3.029-0.505-4.14-1.515
		C192.879,506.285,192.374,504.973,192.374,503.256z M198.13,502.953c0,0.404,0.101,0.808,0.404,1.01
		c0.303,0.303,0.707,0.404,1.212,0.404c0.707,0,1.414-0.304,2.02-1.01c0.606-0.606,0.909-1.313,0.909-2.121v-0.404h-0.505
		c-1.01,0-2.02,0.202-2.727,0.505C198.534,501.842,198.13,502.347,198.13,502.953z"/>
	<path fill="#FFFFFF" d="M211.157,499.822c0-2.424,0.909-4.544,2.625-6.361c1.717-1.818,4.04-2.626,7.069-2.626
		c0.909,0,1.717,0.101,2.525,0.303c0.808,0.202,1.414,0.404,1.918,0.606c0.505,0.303,1.01,0.505,1.313,0.808
		c0.404,0.303,0.606,0.505,0.808,0.605l0.303,0.304l-2.424,3.938c-0.101-0.101-0.303-0.303-0.505-0.505
		c-0.202-0.201-0.707-0.403-1.414-0.706c-0.707-0.304-1.414-0.505-2.121-0.505c-1.313,0-2.323,0.403-3.03,1.211
		c-0.707,0.809-1.111,1.818-1.111,2.929c0,1.111,0.404,2.121,1.111,3.029c0.808,0.909,1.818,1.313,3.231,1.313
		c0.707,0,1.515-0.202,2.222-0.505c0.808-0.303,1.414-0.707,1.818-1.01l0.606-0.505l2.121,4.039
		c-0.101,0.101-0.202,0.202-0.303,0.303c-0.101,0.102-0.404,0.404-0.909,0.707s-1.01,0.606-1.515,0.909s-1.212,0.505-2.121,0.707
		c-0.808,0.201-1.717,0.303-2.626,0.303c-2.928,0-5.251-0.909-7.069-2.626C212.066,504.468,211.157,502.347,211.157,499.822z"/>
	<path fill="#FFFFFF" d="M230.95,508.507v-17.268h5.857v17.268H230.95z M231.051,489.018v-4.545h5.655v4.545H231.051z"/>
	<path fill="#FFFFFF" d="M242.563,506.387c-1.918-1.717-2.827-3.838-2.827-6.463c0-2.626,0.909-4.848,2.827-6.564
		c1.919-1.717,4.242-2.524,6.968-2.524s5.15,0.808,6.968,2.524c1.918,1.717,2.828,3.838,2.828,6.564
		c0,2.625-0.909,4.847-2.828,6.463c-1.919,1.717-4.241,2.524-6.968,2.524S244.482,508.002,242.563,506.387z M245.694,499.924
		c0,1.212,0.404,2.222,1.111,3.029c0.808,0.808,1.717,1.11,2.827,1.11c1.111,0,2.02-0.403,2.828-1.11
		c0.808-0.808,1.111-1.817,1.111-3.029c0-1.313-0.404-2.323-1.111-3.131c-0.808-0.808-1.717-1.212-2.828-1.212
		c-1.11,0-2.02,0.404-2.827,1.212C245.997,497.601,245.694,498.61,245.694,499.924z"/>
	<path fill="#FFFFFF" d="M262.457,508.507v-17.268h5.554v1.515l-0.101,1.11h0.101c1.212-2.02,3.029-3.029,5.554-3.029
		c4.14,0,6.261,2.121,6.261,6.463v11.209h-5.857v-10.098c0-1.516-0.605-2.323-1.918-2.323c-1.716,0-2.827,0.808-3.433,2.524
		c-0.202,0.606-0.303,1.414-0.303,2.323v7.675h-5.857V508.507z"/>
	<path fill="#FFFFFF" d="M282.451,503.256c0-1.212,0.404-2.12,1.111-2.929c0.809-0.808,1.717-1.413,2.929-1.717
		c1.212-0.303,2.222-0.605,3.231-0.706c0.908-0.102,1.818-0.202,2.727-0.202h0.202v-0.304c0-1.313-0.808-1.918-2.524-1.918
		c-0.606,0-1.313,0.101-2.121,0.403c-0.808,0.304-1.414,0.505-1.817,0.809l-0.707,0.403l-2.02-4.14
		c0.202-0.202,0.505-0.404,0.909-0.606c0.403-0.202,1.211-0.605,2.523-1.01c1.313-0.404,2.525-0.605,3.736-0.605
		c2.424,0,4.343,0.605,5.757,1.918c1.413,1.212,2.02,2.929,2.02,5.15v10.604h-5.353v-1.01l0.102-1.111h-0.102
		c0,0.102-0.101,0.202-0.201,0.304c-0.102,0.101-0.202,0.303-0.506,0.605c-0.303,0.303-0.605,0.505-0.908,0.808
		c-0.303,0.202-0.808,0.404-1.414,0.606c-0.605,0.202-1.211,0.303-1.918,0.303c-1.616,0-3.029-0.505-4.141-1.515
		C283.058,506.285,282.451,504.973,282.451,503.256z M288.309,502.953c0,0.404,0.102,0.808,0.404,1.01
		c0.303,0.303,0.707,0.404,1.212,0.404c0.706,0,1.413-0.304,2.02-1.01c0.606-0.606,0.909-1.313,0.909-2.121v-0.404h-0.506
		c-1.01,0-2.02,0.202-2.727,0.505C288.713,501.842,288.309,502.347,288.309,502.953z"/>
	<path fill="#FFFFFF" d="M302.346,502.044v-17.672h5.857v16.864c0,0.808,0.101,1.414,0.303,1.717s0.605,0.505,1.313,0.505h0.707
		v5.049c-0.505,0.102-1.111,0.102-1.717,0.102c-0.909,0-1.717-0.102-2.322-0.202c-0.707-0.102-1.313-0.404-2.02-0.808
		c-0.707-0.404-1.213-1.111-1.516-2.021C302.548,504.67,302.346,503.458,302.346,502.044z"/>
	<path fill="#FFFFFF" d="M329.006,491.037c3.938,0,5.251,2.727,5.251,2.727h0.101c0,0-0.101-0.505-0.101-1.111v-7.876h3.231v23.73
		h-3.131v-1.615c0-0.707,0-1.111,0-1.111h-0.101c0,0-1.414,3.131-5.555,3.131c-4.645,0-7.473-3.636-7.473-8.887
		C321.331,494.571,324.563,491.037,329.006,491.037z M329.511,506.084c2.524,0,4.947-1.818,4.947-6.16c0-3.03-1.615-6.06-4.847-6.06
		c-2.727,0-4.948,2.222-4.948,6.06C324.663,503.66,326.683,506.084,329.511,506.084z"/>
	<path fill="#FFFFFF" d="M350.01,491.037c4.848,0,7.372,3.534,7.372,7.978c0,0.404-0.101,1.414-0.101,1.414h-12.422
		c0.202,3.736,2.828,5.655,5.857,5.655c2.929,0,5.049-2.021,5.049-2.021l1.313,2.424c0,0-2.524,2.424-6.564,2.424
		c-5.352,0-8.987-3.838-8.987-8.887C341.427,494.571,345.163,491.037,350.01,491.037z M353.948,498.005
		c-0.101-2.929-1.919-4.343-4.141-4.343c-2.524,0-4.544,1.516-4.948,4.343H353.948z"/>
	<path fill="#FFFFFF" d="M381.012,484.372c5.757,0,8.584,3.131,8.584,3.131l-1.616,2.524c0,0-2.727-2.626-6.866-2.626
		c-5.353,0-8.786,4.039-8.786,9.089c0,5.049,3.535,9.392,8.786,9.392c4.443,0,7.271-3.131,7.271-3.131l1.817,2.424
		c0,0-3.231,3.736-9.189,3.736c-7.17,0-12.118-5.453-12.118-12.421C368.995,489.623,374.146,484.372,381.012,484.372z"/>
	<path fill="#FFFFFF" d="M393.938,491.44h3.232v10.099c0,2.323,0.505,4.241,3.231,4.241c3.433,0,5.554-3.029,5.554-6.463v-7.978
		h3.231v16.965h-3.231v-2.221c0-0.707,0.101-1.212,0.101-1.212h-0.101c-0.707,1.717-2.929,3.938-6.261,3.938
		c-3.838,0-5.857-2.021-5.857-6.564V491.44H393.938z"/>
	<path fill="#FFFFFF" d="M414.235,484.776h3.333v3.332h-3.333V484.776z M414.235,491.44h3.231v16.966h-3.231V491.44z"/>
	<path fill="#FFFFFF" d="M429.182,491.037c3.938,0,5.251,2.727,5.251,2.727h0.101c0,0-0.101-0.505-0.101-1.111v-7.876h3.231v23.73
		h-3.131v-1.615c0-0.707,0-1.111,0-1.111h-0.101c0,0-1.414,3.131-5.554,3.131c-4.646,0-7.474-3.636-7.474-8.887
		C421.507,494.571,424.637,491.037,429.182,491.037z M429.585,506.084c2.524,0,4.948-1.818,4.948-6.16c0-3.03-1.615-6.06-4.847-6.06
		c-2.727,0-4.948,2.222-4.948,6.06C424.839,503.66,426.758,506.084,429.585,506.084z"/>
	<path fill="#FFFFFF" d="M451.6,497.904h0.707v-0.304c0-2.827-1.615-3.736-3.736-3.736c-2.626,0-4.746,1.616-4.746,1.616
		l-1.313-2.424c0,0,2.423-2.02,6.361-2.02c4.343,0,6.766,2.322,6.766,6.665v10.704h-3.029v-1.515c0-0.808,0.102-1.313,0.102-1.313
		h-0.102c0,0-1.413,3.333-5.453,3.333c-2.929,0-5.756-1.817-5.756-5.15C441.4,498.105,448.772,497.904,451.6,497.904z
		 M447.863,506.285c2.727,0,4.544-2.928,4.544-5.453v-0.505H451.6c-2.424,0-6.867,0.202-6.867,3.231
		C444.732,504.872,445.742,506.285,447.863,506.285z"/>
	<path fill="#FFFFFF" d="M467.051,491.037c3.938,0,5.251,2.727,5.251,2.727h0.101c0,0-0.101-0.505-0.101-1.111v-7.876h3.231v23.73
		h-3.131v-1.615c0-0.707,0-1.111,0-1.111h-0.101c0,0-1.414,3.131-5.555,3.131c-4.645,0-7.473-3.636-7.473-8.887
		C459.376,494.571,462.607,491.037,467.051,491.037z M467.556,506.084c2.524,0,4.948-1.818,4.948-6.16c0-3.03-1.616-6.06-4.848-6.06
		c-2.727,0-4.948,2.222-4.948,6.06C462.708,503.66,464.728,506.084,467.556,506.084z"/>
	<path fill="#FFFFFF" d="M488.661,491.037c5.049,0,9.189,3.736,9.189,8.887s-4.141,8.887-9.189,8.887
		c-5.05,0-9.189-3.736-9.189-8.887S483.511,491.037,488.661,491.037z M488.661,506.084c3.231,0,5.856-2.525,5.856-6.16
		c0-3.535-2.625-6.06-5.856-6.06s-5.857,2.524-5.857,6.06C482.804,503.458,485.43,506.084,488.661,506.084z"/>
	<path fill="#FFFFFF" d="M501.89,504.063c0,0,1.919,2.021,4.848,2.021c1.413,0,2.827-0.707,2.827-2.121
		c0-3.131-8.685-2.524-8.685-7.978c0-3.131,2.727-4.848,6.16-4.848c3.736,0,5.453,1.919,5.453,1.919l-1.313,2.424
		c0,0-1.516-1.515-4.242-1.515c-1.413,0-2.827,0.605-2.827,2.12c0,3.029,8.685,2.424,8.685,7.978c0,2.828-2.424,4.948-6.16,4.948
		c-4.14,0-6.463-2.524-6.463-2.524L501.89,504.063z"/>
</g>
</svg>
