<?xml version="1.0" encoding="UTF-8"?><svg id="Capa_2" xmlns="http://www.w3.org/2000/svg" viewBox="0 0 138.36 138.36"><defs><style>.cls-1{fill:#e8e8e8;}.cls-2{fill:#224e8e;}</style></defs><g id="Capa_1-2"><g><rect class="cls-1" width="138.36" height="138.36" rx="27.01" ry="27.01"/><g id="UUyqxe"><g><path class="cls-2" d="M112.8,36.49c-.54,.59-.93,1.02-1.34,1.44-12.61,12.73-25.28,25.41-37.81,38.22-3.11,3.18-5.82,3.23-8.96,.03-12.52-12.82-25.18-25.51-37.79-38.25-.41-.41-.8-.85-1.41-1.51,.8-.24,1.4-.5,2.01-.58,.83-.1,1.68-.07,2.52-.07,26.1,0,52.2,0,78.31,0,1.4,0,2.86-.25,4.46,.72Z"/><path class="cls-2" d="M82.57,73.83c10.13,9.39,20.1,18.64,30.27,28.06-.72,.27-1.16,.54-1.62,.59-.92,.1-1.85,.11-2.77,.11-26.17,0-52.34,0-78.51-.01-1.38,0-2.85,.3-4.32-.76,10.08-9.34,20.04-18.57,30.15-27.94,.96,.95,1.78,1.76,2.6,2.58,1.31,1.31,2.65,2.59,3.9,3.95,3.71,4.03,10.21,3.84,13.74,.04,2.06-2.21,4.25-4.3,6.56-6.61Z"/><path class="cls-2" d="M52.39,70.46l-30.52,28.3c-.26-1.55-.61-2.66-.61-3.78-.03-17.24-.03-34.49,0-51.73,0-1.05,.32-2.09,.56-3.58,10.32,10.39,20.32,20.46,30.57,30.79Z"/><path class="cls-2" d="M85.94,70.43l30.6-30.81c.24,1.68,.55,2.87,.56,4.07,.03,16.98,.03,33.97,0,50.95,0,1.22-.31,2.45-.55,4.18-10.4-9.64-20.43-18.94-30.61-28.38Z"/></g></g></g></g></svg>