<?xml version="1.0" encoding="UTF-8"?><svg id="Capa_2" xmlns="http://www.w3.org/2000/svg" xmlns:xlink="http://www.w3.org/1999/xlink" viewBox="0 0 124.6 124.6"><defs><style>.cls-1{fill:none;}.cls-2{clip-path:url(#clippath);}.cls-3{fill:#008f45;}.cls-4{fill:#fff;}</style><clipPath id="clippath"><rect class="cls-1" x="0" y="0" width="124.6" height="124.6" rx="24.33" ry="24.33"/></clipPath></defs><g id="Capa_1-2"><rect class="cls-3" x="0" y="0" width="124.6" height="124.6" rx="24.33" ry="24.33"/><g><path class="cls-4" d="M23.77,25.46c0-10.44,5.92-20.14,17.36-20.14,4.57,0,7.61,1.54,7.61,1.54l-2.29,7.21s-2.34-1.04-4.97-1.04c-4.23,0-6.66,2.68-7.76,6.12h.1c.99-.65,3.18-1.24,5.37-1.24,7.26,0,11.74,6.07,11.74,12.03s-4.92,12.13-12.78,12.13-14.37-5.47-14.37-16.61Zm14.37,8.9c2.24,0,3.83-1.84,3.83-4.48,0-2.39-1.44-4.97-6.02-4.97-1.94,0-3.23,.75-3.23,3.13,0,2.98,2.44,6.32,5.42,6.32Z"/><path class="cls-4" d="M54.65,23.62c0-10.19,3.28-18.3,13.38-18.3s13.38,8.11,13.38,18.3-3.28,18.45-13.38,18.45-13.38-8.25-13.38-18.45Zm17.8,0c0-5.92-1-10.59-4.43-10.59s-4.43,4.67-4.43,10.59,1,10.74,4.43,10.74,4.43-4.77,4.43-10.74Z"/><path class="cls-4" d="M85.21,20.83h7.67V12.49h5.09v8.34h7.67v4.86h-7.67v8.3h-5.09v-8.3h-7.67v-4.86Z"/></g><g class="cls-2"><path class="cls-4" d="M11.27,106.89c-.96-.75-1.8-1.54-2.76-2.14-13.74-8.58-22.31-20.8-25.33-36.69-.87-4.6-.99-9.36-1.17-14.06-.13-3.36,2.4-5.86,5.34-5.8,3.04,.06,5.39,2.42,5.45,5.81,.18,9.7,2.83,18.62,8.52,26.48,8.59,11.87,20.2,18.91,34.94,19.19,16.95,.33,29.15,8.18,38.09,21.88,5.43,8.32,8.43,17.58,9.22,27.51,.05,.68,0,1.37,0,2.27h-8.35c-.25-1.16-.57-2.4-.76-3.65-1.62-10.3-6.83-18.69-13.88-26.09-.4-.42-.87-.8-1.36-1.1-.27-.16-.67-.12-1.01-.16-1.8,.89-1.5,2.53-1.5,4.02-.02,7.79-.01,15.57-.01,23.36,0,1.15,0,2.3,0,3.65H-4.43c5.09-14.91,10.55-29.49,15.7-44.47Zm105.4-17.4c6-3.88,11.25-8.56,15.4-14.41,7.43-10.47,10.44-22.25,10.43-34.94,0-4.47-.95-5.64-5.5-6.75-4.28,1.27-5.25,2.47-5.37,6.64-.25,8.42-2.42,16.3-7,23.38-8.72,13.48-21.04,20.89-37.23,21.59-2.11,.09-4.23,.26-6.33,.51-10.41,1.27-18.76,6.36-26.05,14,2.05,1.16,3.94,2.09,5.69,3.24,13.98,9.14,21.94,22.34,25.58,38.35,.77,3.4,1.14,6.89,1.69,10.29,7.98,.53,38.08,.31,41.11-.37-5.25-19.51-10.5-39-15.89-59.02,1.23-.9,2.3-1.77,3.46-2.52Zm-48.18,62.1l2.87-.32c-.6-4.01-1.22-7.69-3.22-11.19-.67,4.17-.56,10.56,.34,11.51Zm6.1-83.52c0,.58,.16,1.17,.3,1.74,1.38,5.7,6.78,10.48,14.08,9.83,5.43-.48,10.57-4.86,11.5-10.21,.7-4.01,.39-8.06,.38-12.23-2.97-.8-5.07-2.55-6.2-5.28-.55-1.31-.91-2.71-1.23-4.1-.31-1.38-.45-2.79-.66-4.17-3.57-1.3-6.97-1.57-10.26,.13-1.2,9.12-2.28,10.98-7.92,13.52,0,3.68-.01,7.23,.01,10.77Zm.38-13.75c3.72-1.78,4.12-5.19,4.82-9-3.54,2.96-5.15,6.04-4.82,9Zm25.61-.23c-.35-3.43-1.83-6.02-4.47-8.25-.23,3.95,1.48,7.13,4.47,8.25ZM26.56,74.22c0,3.06,0,6.26,0,9.47,0,.74,.02,1.48,.08,2.22,.03,.4,.15,.81,.26,1.2,1.44,5.08,5.98,8.14,11.31,7.46,5.69-.73,8.89-5.75,8.78-10.05-.07-2.97,0-5.94-.02-8.9,0-.55-.11-1.09-.18-1.64-3.8-.71-7.38-1.6-10.58-3.8-3.28,1.37-6.37,2.67-9.67,4.05Zm26.28,1.12c1.24-5.57-.51-10.23-4.63-14.03-5.08-4.69-13.88-5.28-19.91-2.05-3.77,2.02-6.26,5.04-7.41,9.12-.94,3.35-1.04,6.67,1.1,9.7,.47,.66,.89,1.37,1.95,1.62,.28-2.7-.15-5.33,.3-8.04,5.66-.99,10.48-3.59,14.96-6.76,1.08,.29,1.49,.87,1.11,2.25l-2.04,1.5c2.1,.79,3.74,1.53,5.46,2.01,1.79,.49,3.66,.73,5.7,1.11v8.1c2.11-1.45,2.97-2.53,3.42-4.54Zm-13.38-26.5c-2.35-1.13-4.92-.77-6.89,.97-1.84,1.62-2.4,3.47-1.68,5.61,5.95-1.16,5.94-1.01,12.11,0,.12-3.28-1.03-5.36-3.54-6.56Z"/></g></g></svg>